G04 EAGLE Gerber RS-274X export*
G75*
%MOMM*%
%FSLAX34Y34*%
%LPD*%
%INSolderpaste Top*%
%IPPOS*%
%AMOC8*
5,1,8,0,0,1.08239X$1,22.5*%
G01*
%ADD10C,0.285000*%
%ADD11R,0.520000X0.520000*%
%ADD12R,0.800000X0.900000*%
%ADD13C,0.135000*%
%ADD14R,0.900000X0.800000*%
%ADD15R,1.270000X1.270000*%
%ADD16R,0.455000X0.400000*%
%ADD17R,1.100000X1.050000*%
%ADD18R,0.850000X0.400000*%
%ADD19R,0.600000X0.600000*%
%ADD20R,1.400000X1.400000*%
%ADD21C,0.076200*%
%ADD22R,1.193800X0.304800*%
%ADD23R,0.304800X1.193800*%
%ADD24R,0.609600X0.228600*%
%ADD25R,0.228600X0.609600*%
%ADD26R,0.457200X1.498600*%
%ADD27R,1.400000X1.000000*%
%ADD28R,1.900000X0.400000*%
%ADD29R,0.610000X0.300000*%
%ADD30R,0.300000X0.610000*%
%ADD31R,0.808000X0.224800*%
%ADD32R,0.224800X0.808000*%
%ADD33R,0.800000X0.500000*%
%ADD34R,0.800000X0.800000*%
%ADD35R,0.500000X0.500000*%
%ADD36R,0.500000X0.800000*%
%ADD37R,0.500000X1.000000*%

G36*
X371589Y715001D02*
X371589Y715001D01*
X371592Y715000D01*
X371675Y715037D01*
X375089Y718451D01*
X375091Y718454D01*
X375093Y718455D01*
X375126Y718540D01*
X375126Y721586D01*
X375125Y721589D01*
X375126Y721592D01*
X375089Y721675D01*
X371675Y725089D01*
X371672Y725091D01*
X371671Y725093D01*
X371586Y725126D01*
X368540Y725126D01*
X368537Y725125D01*
X368534Y725126D01*
X368451Y725089D01*
X365037Y721675D01*
X365036Y721672D01*
X365033Y721671D01*
X365000Y721586D01*
X365000Y718540D01*
X365001Y718537D01*
X365000Y718534D01*
X365037Y718451D01*
X368451Y715037D01*
X368454Y715036D01*
X368455Y715033D01*
X368540Y715000D01*
X371586Y715000D01*
X371589Y715001D01*
G37*
G36*
X605463Y756938D02*
X605463Y756938D01*
X605466Y756937D01*
X605549Y756974D01*
X606963Y758388D01*
X606965Y758391D01*
X606967Y758392D01*
X607000Y758477D01*
X607000Y761523D01*
X606999Y761526D01*
X607000Y761529D01*
X606963Y761612D01*
X605549Y763026D01*
X605546Y763028D01*
X605545Y763030D01*
X605460Y763063D01*
X602414Y763063D01*
X602411Y763062D01*
X602408Y763063D01*
X602325Y763026D01*
X600911Y761612D01*
X600910Y761609D01*
X600907Y761608D01*
X600874Y761523D01*
X600874Y758477D01*
X600875Y758474D01*
X600874Y758471D01*
X600911Y758388D01*
X602325Y756974D01*
X602328Y756973D01*
X602329Y756970D01*
X602414Y756937D01*
X605460Y756937D01*
X605463Y756938D01*
G37*
G36*
X597589Y756938D02*
X597589Y756938D01*
X597592Y756937D01*
X597675Y756974D01*
X599089Y758388D01*
X599091Y758391D01*
X599093Y758392D01*
X599126Y758477D01*
X599126Y761523D01*
X599125Y761526D01*
X599126Y761529D01*
X599089Y761612D01*
X597675Y763026D01*
X597672Y763028D01*
X597671Y763030D01*
X597586Y763063D01*
X594540Y763063D01*
X594537Y763062D01*
X594534Y763063D01*
X594451Y763026D01*
X593037Y761612D01*
X593036Y761609D01*
X593033Y761608D01*
X593000Y761523D01*
X593000Y758477D01*
X593001Y758474D01*
X593000Y758471D01*
X593037Y758388D01*
X594451Y756974D01*
X594454Y756973D01*
X594455Y756970D01*
X594540Y756937D01*
X597586Y756937D01*
X597589Y756938D01*
G37*
G36*
X371463Y728749D02*
X371463Y728749D01*
X371466Y728748D01*
X371549Y728785D01*
X372963Y730199D01*
X372965Y730202D01*
X372967Y730203D01*
X373000Y730288D01*
X373000Y733221D01*
X372999Y733223D01*
X373000Y733225D01*
X372980Y733268D01*
X372962Y733311D01*
X372960Y733312D01*
X372959Y733314D01*
X372874Y733347D01*
X367000Y733347D01*
X366998Y733346D01*
X366996Y733347D01*
X366953Y733327D01*
X366909Y733309D01*
X366909Y733307D01*
X366907Y733306D01*
X366874Y733221D01*
X366874Y730288D01*
X366875Y730285D01*
X366874Y730282D01*
X366911Y730199D01*
X368325Y728785D01*
X368328Y728784D01*
X368329Y728781D01*
X368414Y728748D01*
X371460Y728748D01*
X371463Y728749D01*
G37*
G36*
X383223Y717001D02*
X383223Y717001D01*
X383225Y717000D01*
X383268Y717020D01*
X383311Y717038D01*
X383312Y717040D01*
X383314Y717041D01*
X383347Y717126D01*
X383347Y723000D01*
X383346Y723002D01*
X383347Y723004D01*
X383327Y723047D01*
X383309Y723091D01*
X383307Y723091D01*
X383306Y723093D01*
X383221Y723126D01*
X380288Y723126D01*
X380285Y723125D01*
X380282Y723126D01*
X380199Y723089D01*
X378785Y721675D01*
X378784Y721672D01*
X378781Y721671D01*
X378748Y721586D01*
X378748Y718540D01*
X378749Y718537D01*
X378748Y718534D01*
X378785Y718451D01*
X380199Y717037D01*
X380202Y717036D01*
X380203Y717033D01*
X380288Y717000D01*
X383221Y717000D01*
X383223Y717001D01*
G37*
G36*
X359715Y717001D02*
X359715Y717001D01*
X359718Y717000D01*
X359801Y717037D01*
X361215Y718451D01*
X361217Y718454D01*
X361219Y718455D01*
X361252Y718540D01*
X361252Y721586D01*
X361251Y721589D01*
X361252Y721592D01*
X361215Y721675D01*
X359801Y723089D01*
X359798Y723091D01*
X359797Y723093D01*
X359712Y723126D01*
X356779Y723126D01*
X356777Y723125D01*
X356775Y723126D01*
X356732Y723106D01*
X356689Y723088D01*
X356688Y723086D01*
X356686Y723085D01*
X356653Y723000D01*
X356653Y717126D01*
X356654Y717124D01*
X356653Y717122D01*
X356673Y717079D01*
X356691Y717035D01*
X356694Y717035D01*
X356694Y717033D01*
X356779Y717000D01*
X359712Y717000D01*
X359715Y717001D01*
G37*
G36*
X373002Y706654D02*
X373002Y706654D01*
X373004Y706653D01*
X373047Y706673D01*
X373091Y706691D01*
X373091Y706694D01*
X373093Y706694D01*
X373126Y706779D01*
X373126Y709712D01*
X373125Y709715D01*
X373126Y709718D01*
X373089Y709801D01*
X371675Y711215D01*
X371672Y711217D01*
X371671Y711219D01*
X371586Y711252D01*
X368540Y711252D01*
X368537Y711251D01*
X368534Y711252D01*
X368451Y711215D01*
X367037Y709801D01*
X367036Y709798D01*
X367033Y709797D01*
X367000Y709712D01*
X367000Y706779D01*
X367001Y706777D01*
X367000Y706775D01*
X367020Y706732D01*
X367038Y706689D01*
X367040Y706688D01*
X367041Y706686D01*
X367126Y706653D01*
X373000Y706653D01*
X373002Y706654D01*
G37*
G36*
X383223Y728749D02*
X383223Y728749D01*
X383225Y728748D01*
X383268Y728768D01*
X383311Y728786D01*
X383312Y728788D01*
X383314Y728789D01*
X383347Y728874D01*
X383347Y733221D01*
X383346Y733223D01*
X383347Y733225D01*
X383327Y733268D01*
X383309Y733311D01*
X383307Y733312D01*
X383306Y733314D01*
X383221Y733347D01*
X378874Y733347D01*
X378872Y733346D01*
X378870Y733347D01*
X378827Y733327D01*
X378783Y733309D01*
X378783Y733307D01*
X378781Y733306D01*
X378748Y733221D01*
X378748Y732126D01*
X378749Y732123D01*
X378748Y732120D01*
X378785Y732037D01*
X382037Y728785D01*
X382040Y728784D01*
X382041Y728781D01*
X382126Y728748D01*
X383221Y728748D01*
X383223Y728749D01*
G37*
G36*
X357877Y728749D02*
X357877Y728749D01*
X357880Y728748D01*
X357963Y728785D01*
X361215Y732037D01*
X361217Y732040D01*
X361219Y732041D01*
X361252Y732126D01*
X361252Y733221D01*
X361251Y733223D01*
X361252Y733225D01*
X361232Y733268D01*
X361214Y733311D01*
X361212Y733312D01*
X361211Y733314D01*
X361126Y733347D01*
X356779Y733347D01*
X356777Y733346D01*
X356775Y733347D01*
X356732Y733327D01*
X356689Y733309D01*
X356688Y733307D01*
X356686Y733306D01*
X356653Y733221D01*
X356653Y728874D01*
X356654Y728872D01*
X356653Y728870D01*
X356673Y728827D01*
X356691Y728783D01*
X356694Y728783D01*
X356694Y728781D01*
X356779Y728748D01*
X357874Y728748D01*
X357877Y728749D01*
G37*
G36*
X383223Y706654D02*
X383223Y706654D01*
X383225Y706653D01*
X383268Y706673D01*
X383311Y706691D01*
X383312Y706694D01*
X383314Y706694D01*
X383347Y706779D01*
X383347Y711126D01*
X383346Y711128D01*
X383347Y711130D01*
X383327Y711173D01*
X383309Y711217D01*
X383307Y711217D01*
X383306Y711219D01*
X383221Y711252D01*
X382126Y711252D01*
X382123Y711251D01*
X382120Y711252D01*
X382037Y711215D01*
X378785Y707963D01*
X378784Y707960D01*
X378781Y707959D01*
X378748Y707874D01*
X378748Y706779D01*
X378749Y706777D01*
X378748Y706775D01*
X378768Y706732D01*
X378786Y706689D01*
X378788Y706688D01*
X378789Y706686D01*
X378874Y706653D01*
X383221Y706653D01*
X383223Y706654D01*
G37*
G36*
X361128Y706654D02*
X361128Y706654D01*
X361130Y706653D01*
X361173Y706673D01*
X361217Y706691D01*
X361217Y706694D01*
X361219Y706694D01*
X361252Y706779D01*
X361252Y707874D01*
X361251Y707877D01*
X361252Y707880D01*
X361215Y707963D01*
X357963Y711215D01*
X357960Y711217D01*
X357959Y711219D01*
X357874Y711252D01*
X356779Y711252D01*
X356777Y711251D01*
X356775Y711252D01*
X356732Y711232D01*
X356689Y711214D01*
X356688Y711212D01*
X356686Y711211D01*
X356653Y711126D01*
X356653Y706779D01*
X356654Y706777D01*
X356653Y706775D01*
X356673Y706732D01*
X356691Y706689D01*
X356694Y706688D01*
X356694Y706686D01*
X356779Y706653D01*
X361126Y706653D01*
X361128Y706654D01*
G37*
G36*
X605463Y764812D02*
X605463Y764812D01*
X605466Y764811D01*
X605549Y764848D01*
X606963Y766262D01*
X606965Y766265D01*
X606967Y766266D01*
X607000Y766351D01*
X607000Y767506D01*
X606999Y767508D01*
X607000Y767510D01*
X606980Y767553D01*
X606962Y767596D01*
X606960Y767597D01*
X606959Y767599D01*
X606874Y767632D01*
X601000Y767632D01*
X600998Y767631D01*
X600996Y767632D01*
X600953Y767612D01*
X600909Y767594D01*
X600909Y767592D01*
X600907Y767591D01*
X600874Y767506D01*
X600874Y766351D01*
X600875Y766348D01*
X600874Y766345D01*
X600911Y766262D01*
X602325Y764848D01*
X602328Y764847D01*
X602329Y764844D01*
X602414Y764811D01*
X605460Y764811D01*
X605463Y764812D01*
G37*
G36*
X597589Y764812D02*
X597589Y764812D01*
X597592Y764811D01*
X597675Y764848D01*
X599089Y766262D01*
X599091Y766265D01*
X599093Y766266D01*
X599126Y766351D01*
X599126Y767506D01*
X599125Y767508D01*
X599126Y767510D01*
X599106Y767553D01*
X599088Y767596D01*
X599086Y767597D01*
X599085Y767599D01*
X599000Y767632D01*
X593126Y767632D01*
X593124Y767631D01*
X593122Y767632D01*
X593079Y767612D01*
X593035Y767594D01*
X593035Y767592D01*
X593033Y767591D01*
X593000Y767506D01*
X593000Y766351D01*
X593001Y766348D01*
X593000Y766345D01*
X593037Y766262D01*
X594451Y764848D01*
X594454Y764847D01*
X594455Y764844D01*
X594540Y764811D01*
X597586Y764811D01*
X597589Y764812D01*
G37*
G36*
X599002Y752369D02*
X599002Y752369D01*
X599004Y752368D01*
X599047Y752388D01*
X599091Y752406D01*
X599091Y752409D01*
X599093Y752409D01*
X599126Y752494D01*
X599126Y753649D01*
X599125Y753652D01*
X599126Y753655D01*
X599089Y753738D01*
X597675Y755152D01*
X597672Y755154D01*
X597671Y755156D01*
X597586Y755189D01*
X594540Y755189D01*
X594537Y755188D01*
X594534Y755189D01*
X594451Y755152D01*
X593037Y753738D01*
X593036Y753735D01*
X593033Y753734D01*
X593000Y753649D01*
X593000Y752494D01*
X593001Y752492D01*
X593000Y752490D01*
X593020Y752447D01*
X593038Y752404D01*
X593040Y752403D01*
X593041Y752401D01*
X593126Y752368D01*
X599000Y752368D01*
X599002Y752369D01*
G37*
G36*
X606876Y752369D02*
X606876Y752369D01*
X606878Y752368D01*
X606921Y752388D01*
X606965Y752406D01*
X606965Y752409D01*
X606967Y752409D01*
X607000Y752494D01*
X607000Y753649D01*
X606999Y753652D01*
X607000Y753655D01*
X606963Y753738D01*
X605549Y755152D01*
X605546Y755154D01*
X605545Y755156D01*
X605460Y755189D01*
X602414Y755189D01*
X602411Y755188D01*
X602408Y755189D01*
X602325Y755152D01*
X600911Y753738D01*
X600910Y753735D01*
X600907Y753734D01*
X600874Y753649D01*
X600874Y752494D01*
X600875Y752492D01*
X600874Y752490D01*
X600894Y752447D01*
X600912Y752404D01*
X600914Y752403D01*
X600915Y752401D01*
X601000Y752368D01*
X606874Y752368D01*
X606876Y752369D01*
G37*
G36*
X589715Y756938D02*
X589715Y756938D01*
X589718Y756937D01*
X589801Y756974D01*
X591215Y758388D01*
X591217Y758391D01*
X591219Y758392D01*
X591252Y758477D01*
X591252Y761523D01*
X591251Y761526D01*
X591252Y761529D01*
X591215Y761612D01*
X589801Y763026D01*
X589798Y763028D01*
X589797Y763030D01*
X589712Y763063D01*
X588811Y763063D01*
X588809Y763062D01*
X588807Y763063D01*
X588764Y763043D01*
X588721Y763025D01*
X588720Y763023D01*
X588718Y763022D01*
X588685Y762937D01*
X588685Y757063D01*
X588686Y757061D01*
X588685Y757059D01*
X588705Y757016D01*
X588723Y756972D01*
X588726Y756972D01*
X588726Y756970D01*
X588811Y756937D01*
X589712Y756937D01*
X589715Y756938D01*
G37*
G36*
X611191Y756938D02*
X611191Y756938D01*
X611193Y756937D01*
X611236Y756957D01*
X611279Y756975D01*
X611280Y756977D01*
X611282Y756978D01*
X611315Y757063D01*
X611315Y762937D01*
X611314Y762939D01*
X611315Y762941D01*
X611295Y762984D01*
X611277Y763028D01*
X611275Y763028D01*
X611274Y763030D01*
X611189Y763063D01*
X610288Y763063D01*
X610285Y763062D01*
X610282Y763063D01*
X610199Y763026D01*
X608785Y761612D01*
X608784Y761609D01*
X608781Y761608D01*
X608748Y761523D01*
X608748Y758477D01*
X608749Y758474D01*
X608748Y758471D01*
X608785Y758388D01*
X610199Y756974D01*
X610202Y756973D01*
X610203Y756970D01*
X610288Y756937D01*
X611189Y756937D01*
X611191Y756938D01*
G37*
G36*
X611191Y764812D02*
X611191Y764812D01*
X611193Y764811D01*
X611236Y764831D01*
X611279Y764849D01*
X611280Y764851D01*
X611282Y764852D01*
X611315Y764937D01*
X611315Y767506D01*
X611314Y767508D01*
X611315Y767510D01*
X611295Y767553D01*
X611277Y767596D01*
X611275Y767597D01*
X611274Y767599D01*
X611189Y767632D01*
X608874Y767632D01*
X608872Y767631D01*
X608870Y767632D01*
X608827Y767612D01*
X608783Y767594D01*
X608783Y767592D01*
X608781Y767591D01*
X608748Y767506D01*
X608748Y766351D01*
X608749Y766348D01*
X608748Y766345D01*
X608785Y766262D01*
X610199Y764848D01*
X610202Y764847D01*
X610203Y764844D01*
X610288Y764811D01*
X611189Y764811D01*
X611191Y764812D01*
G37*
G36*
X589715Y764812D02*
X589715Y764812D01*
X589718Y764811D01*
X589801Y764848D01*
X591215Y766262D01*
X591217Y766265D01*
X591219Y766266D01*
X591252Y766351D01*
X591252Y767506D01*
X591251Y767508D01*
X591252Y767510D01*
X591232Y767553D01*
X591214Y767596D01*
X591212Y767597D01*
X591211Y767599D01*
X591126Y767632D01*
X588811Y767632D01*
X588809Y767631D01*
X588807Y767632D01*
X588764Y767612D01*
X588721Y767594D01*
X588720Y767592D01*
X588718Y767591D01*
X588685Y767506D01*
X588685Y764937D01*
X588686Y764935D01*
X588685Y764933D01*
X588705Y764890D01*
X588723Y764846D01*
X588726Y764846D01*
X588726Y764844D01*
X588811Y764811D01*
X589712Y764811D01*
X589715Y764812D01*
G37*
G36*
X591128Y752369D02*
X591128Y752369D01*
X591130Y752368D01*
X591173Y752388D01*
X591217Y752406D01*
X591217Y752409D01*
X591219Y752409D01*
X591252Y752494D01*
X591252Y753649D01*
X591251Y753652D01*
X591252Y753655D01*
X591215Y753738D01*
X589801Y755152D01*
X589798Y755154D01*
X589797Y755156D01*
X589712Y755189D01*
X588811Y755189D01*
X588809Y755188D01*
X588807Y755189D01*
X588764Y755169D01*
X588721Y755151D01*
X588720Y755149D01*
X588718Y755148D01*
X588685Y755063D01*
X588685Y752494D01*
X588686Y752492D01*
X588685Y752490D01*
X588705Y752447D01*
X588723Y752404D01*
X588726Y752403D01*
X588726Y752401D01*
X588811Y752368D01*
X591126Y752368D01*
X591128Y752369D01*
G37*
G36*
X611191Y752369D02*
X611191Y752369D01*
X611193Y752368D01*
X611236Y752388D01*
X611279Y752406D01*
X611280Y752409D01*
X611282Y752409D01*
X611315Y752494D01*
X611315Y755063D01*
X611314Y755065D01*
X611315Y755067D01*
X611295Y755110D01*
X611277Y755154D01*
X611275Y755154D01*
X611274Y755156D01*
X611189Y755189D01*
X610288Y755189D01*
X610285Y755188D01*
X610282Y755189D01*
X610199Y755152D01*
X608785Y753738D01*
X608784Y753735D01*
X608781Y753734D01*
X608748Y753649D01*
X608748Y752494D01*
X608749Y752492D01*
X608748Y752490D01*
X608768Y752447D01*
X608786Y752404D01*
X608788Y752403D01*
X608789Y752401D01*
X608874Y752368D01*
X611189Y752368D01*
X611191Y752369D01*
G37*
D10*
X587825Y792925D02*
X581175Y792925D01*
X581175Y807075D01*
X587825Y807075D01*
X587825Y792925D01*
X587825Y795632D02*
X581175Y795632D01*
X581175Y798339D02*
X587825Y798339D01*
X587825Y801046D02*
X581175Y801046D01*
X581175Y803753D02*
X587825Y803753D01*
X587825Y806460D02*
X581175Y806460D01*
X612175Y792925D02*
X618825Y792925D01*
X612175Y792925D02*
X612175Y807075D01*
X618825Y807075D01*
X618825Y792925D01*
X618825Y795632D02*
X612175Y795632D01*
X612175Y798339D02*
X618825Y798339D01*
X618825Y801046D02*
X612175Y801046D01*
X612175Y803753D02*
X618825Y803753D01*
X618825Y806460D02*
X612175Y806460D01*
D11*
X670000Y266000D03*
X670000Y274000D03*
X526000Y586000D03*
X526000Y594000D03*
D12*
X682500Y410000D03*
X697500Y410000D03*
X682500Y350000D03*
X697500Y350000D03*
X62500Y880000D03*
X77500Y880000D03*
X62500Y820000D03*
X77500Y820000D03*
D11*
X582000Y402500D03*
X582000Y394500D03*
D13*
X572075Y713325D02*
X559925Y713325D01*
X572075Y713325D02*
X572075Y686675D01*
X559925Y686675D01*
X559925Y713325D01*
X559925Y687957D02*
X572075Y687957D01*
X572075Y689239D02*
X559925Y689239D01*
X559925Y690521D02*
X572075Y690521D01*
X572075Y691803D02*
X559925Y691803D01*
X559925Y693085D02*
X572075Y693085D01*
X572075Y694367D02*
X559925Y694367D01*
X559925Y695649D02*
X572075Y695649D01*
X572075Y696931D02*
X559925Y696931D01*
X559925Y698213D02*
X572075Y698213D01*
X572075Y699495D02*
X559925Y699495D01*
X559925Y700777D02*
X572075Y700777D01*
X572075Y702059D02*
X559925Y702059D01*
X559925Y703341D02*
X572075Y703341D01*
X572075Y704623D02*
X559925Y704623D01*
X559925Y705905D02*
X572075Y705905D01*
X572075Y707187D02*
X559925Y707187D01*
X559925Y708469D02*
X572075Y708469D01*
X572075Y709751D02*
X559925Y709751D01*
X559925Y711033D02*
X572075Y711033D01*
X572075Y712315D02*
X559925Y712315D01*
X540075Y713325D02*
X527925Y713325D01*
X540075Y713325D02*
X540075Y686675D01*
X527925Y686675D01*
X527925Y713325D01*
X527925Y687957D02*
X540075Y687957D01*
X540075Y689239D02*
X527925Y689239D01*
X527925Y690521D02*
X540075Y690521D01*
X540075Y691803D02*
X527925Y691803D01*
X527925Y693085D02*
X540075Y693085D01*
X540075Y694367D02*
X527925Y694367D01*
X527925Y695649D02*
X540075Y695649D01*
X540075Y696931D02*
X527925Y696931D01*
X527925Y698213D02*
X540075Y698213D01*
X540075Y699495D02*
X527925Y699495D01*
X527925Y700777D02*
X540075Y700777D01*
X540075Y702059D02*
X527925Y702059D01*
X527925Y703341D02*
X540075Y703341D01*
X540075Y704623D02*
X527925Y704623D01*
X527925Y705905D02*
X540075Y705905D01*
X540075Y707187D02*
X527925Y707187D01*
X527925Y708469D02*
X540075Y708469D01*
X540075Y709751D02*
X527925Y709751D01*
X527925Y711033D02*
X540075Y711033D01*
X540075Y712315D02*
X527925Y712315D01*
D14*
X613000Y668500D03*
X613000Y653500D03*
D11*
X492000Y454180D03*
X500000Y454180D03*
X500000Y529540D03*
X492000Y529540D03*
X657000Y404000D03*
X649000Y404000D03*
X696000Y509000D03*
X696000Y501000D03*
X680920Y573810D03*
X688920Y573810D03*
D14*
X570000Y387500D03*
X570000Y402500D03*
D11*
X414000Y180000D03*
X406000Y180000D03*
X591000Y402500D03*
X591000Y394500D03*
D13*
X456675Y759925D02*
X456675Y772075D01*
X483325Y772075D01*
X483325Y759925D01*
X456675Y759925D01*
X456675Y761207D02*
X483325Y761207D01*
X483325Y762489D02*
X456675Y762489D01*
X456675Y763771D02*
X483325Y763771D01*
X483325Y765053D02*
X456675Y765053D01*
X456675Y766335D02*
X483325Y766335D01*
X483325Y767617D02*
X456675Y767617D01*
X456675Y768899D02*
X483325Y768899D01*
X483325Y770181D02*
X456675Y770181D01*
X456675Y771463D02*
X483325Y771463D01*
X456675Y740075D02*
X456675Y727925D01*
X456675Y740075D02*
X483325Y740075D01*
X483325Y727925D01*
X456675Y727925D01*
X456675Y729207D02*
X483325Y729207D01*
X483325Y730489D02*
X456675Y730489D01*
X456675Y731771D02*
X483325Y731771D01*
X483325Y733053D02*
X456675Y733053D01*
X456675Y734335D02*
X483325Y734335D01*
X483325Y735617D02*
X456675Y735617D01*
X456675Y736899D02*
X483325Y736899D01*
X483325Y738181D02*
X456675Y738181D01*
X456675Y739463D02*
X483325Y739463D01*
X206675Y759925D02*
X206675Y772075D01*
X233325Y772075D01*
X233325Y759925D01*
X206675Y759925D01*
X206675Y761207D02*
X233325Y761207D01*
X233325Y762489D02*
X206675Y762489D01*
X206675Y763771D02*
X233325Y763771D01*
X233325Y765053D02*
X206675Y765053D01*
X206675Y766335D02*
X233325Y766335D01*
X233325Y767617D02*
X206675Y767617D01*
X206675Y768899D02*
X233325Y768899D01*
X233325Y770181D02*
X206675Y770181D01*
X206675Y771463D02*
X233325Y771463D01*
X206675Y740075D02*
X206675Y727925D01*
X206675Y740075D02*
X233325Y740075D01*
X233325Y727925D01*
X206675Y727925D01*
X206675Y729207D02*
X233325Y729207D01*
X233325Y730489D02*
X206675Y730489D01*
X206675Y731771D02*
X233325Y731771D01*
X233325Y733053D02*
X206675Y733053D01*
X206675Y734335D02*
X233325Y734335D01*
X233325Y735617D02*
X206675Y735617D01*
X206675Y736899D02*
X233325Y736899D01*
X233325Y738181D02*
X206675Y738181D01*
X206675Y739463D02*
X233325Y739463D01*
D10*
X511175Y792925D02*
X517825Y792925D01*
X511175Y792925D02*
X511175Y807075D01*
X517825Y807075D01*
X517825Y792925D01*
X517825Y795632D02*
X511175Y795632D01*
X511175Y798339D02*
X517825Y798339D01*
X517825Y801046D02*
X511175Y801046D01*
X511175Y803753D02*
X517825Y803753D01*
X517825Y806460D02*
X511175Y806460D01*
X542175Y792925D02*
X548825Y792925D01*
X542175Y792925D02*
X542175Y807075D01*
X548825Y807075D01*
X548825Y792925D01*
X548825Y795632D02*
X542175Y795632D01*
X542175Y798339D02*
X548825Y798339D01*
X548825Y801046D02*
X542175Y801046D01*
X542175Y803753D02*
X548825Y803753D01*
X548825Y806460D02*
X542175Y806460D01*
X228825Y807075D02*
X222175Y807075D01*
X228825Y807075D02*
X228825Y792925D01*
X222175Y792925D01*
X222175Y807075D01*
X222175Y795632D02*
X228825Y795632D01*
X228825Y798339D02*
X222175Y798339D01*
X222175Y801046D02*
X228825Y801046D01*
X228825Y803753D02*
X222175Y803753D01*
X222175Y806460D02*
X228825Y806460D01*
X197825Y807075D02*
X191175Y807075D01*
X197825Y807075D02*
X197825Y792925D01*
X191175Y792925D01*
X191175Y807075D01*
X191175Y795632D02*
X197825Y795632D01*
X197825Y798339D02*
X191175Y798339D01*
X191175Y801046D02*
X197825Y801046D01*
X197825Y803753D02*
X191175Y803753D01*
X191175Y806460D02*
X197825Y806460D01*
D11*
X974000Y180000D03*
X966000Y180000D03*
X224000Y820000D03*
X216000Y820000D03*
X518000Y820000D03*
X526000Y820000D03*
D14*
X330000Y737500D03*
X330000Y722500D03*
D11*
X330000Y704000D03*
X330000Y696000D03*
D10*
X287925Y762175D02*
X287925Y768825D01*
X302075Y768825D01*
X302075Y762175D01*
X287925Y762175D01*
X287925Y764882D02*
X302075Y764882D01*
X302075Y767589D02*
X287925Y767589D01*
X287925Y737825D02*
X287925Y731175D01*
X287925Y737825D02*
X302075Y737825D01*
X302075Y731175D01*
X287925Y731175D01*
X287925Y733882D02*
X302075Y733882D01*
X302075Y736589D02*
X287925Y736589D01*
D11*
X234000Y180000D03*
X226000Y180000D03*
X315000Y740000D03*
X315000Y732000D03*
D14*
X333000Y662500D03*
X333000Y677500D03*
X348000Y662500D03*
X348000Y677500D03*
D11*
X294000Y990000D03*
X286000Y990000D03*
X306000Y990000D03*
X314000Y990000D03*
X794000Y180000D03*
X786000Y180000D03*
D15*
X680795Y800000D03*
X659205Y800000D03*
D16*
X499225Y813500D03*
X499225Y820000D03*
X499225Y826500D03*
X480775Y826500D03*
X480775Y820000D03*
X480775Y813500D03*
D17*
X490000Y816750D03*
D18*
X489100Y826500D03*
D16*
X259225Y813500D03*
X259225Y820000D03*
X259225Y826500D03*
X240775Y826500D03*
X240775Y820000D03*
X240775Y813500D03*
D17*
X250000Y816750D03*
D18*
X249100Y826500D03*
D16*
X320775Y826500D03*
X320775Y820000D03*
X320775Y813500D03*
X339225Y813500D03*
X339225Y820000D03*
X339225Y826500D03*
D17*
X330000Y823250D03*
D18*
X330900Y813500D03*
D16*
X400775Y826500D03*
X400775Y820000D03*
X400775Y813500D03*
X419225Y813500D03*
X419225Y820000D03*
X419225Y826500D03*
D17*
X410000Y823250D03*
D18*
X410900Y813500D03*
D19*
X415500Y40000D03*
X404500Y40000D03*
D20*
X289000Y880000D03*
X311000Y880000D03*
D19*
X361000Y675500D03*
X361000Y664500D03*
X372000Y675500D03*
X372000Y664500D03*
X383000Y664500D03*
X383000Y675500D03*
X795500Y40000D03*
X784500Y40000D03*
X574500Y730000D03*
X585500Y730000D03*
X605500Y730000D03*
X594500Y730000D03*
X625500Y730000D03*
X614500Y730000D03*
X530000Y275500D03*
X530000Y264500D03*
X975500Y40000D03*
X964500Y40000D03*
X235500Y40000D03*
X224500Y40000D03*
D21*
X591393Y743333D02*
X591393Y748667D01*
X591393Y743333D02*
X589107Y743333D01*
X589107Y748667D01*
X591393Y748667D01*
X591393Y744057D02*
X589107Y744057D01*
X589107Y744781D02*
X591393Y744781D01*
X591393Y745505D02*
X589107Y745505D01*
X589107Y746229D02*
X591393Y746229D01*
X591393Y746953D02*
X589107Y746953D01*
X589107Y747677D02*
X591393Y747677D01*
X591393Y748401D02*
X589107Y748401D01*
X597893Y748667D02*
X597893Y743333D01*
X595607Y743333D01*
X595607Y748667D01*
X597893Y748667D01*
X597893Y744057D02*
X595607Y744057D01*
X595607Y744781D02*
X597893Y744781D01*
X597893Y745505D02*
X595607Y745505D01*
X595607Y746229D02*
X597893Y746229D01*
X597893Y746953D02*
X595607Y746953D01*
X595607Y747677D02*
X597893Y747677D01*
X597893Y748401D02*
X595607Y748401D01*
X604393Y748667D02*
X604393Y743333D01*
X602107Y743333D01*
X602107Y748667D01*
X604393Y748667D01*
X604393Y744057D02*
X602107Y744057D01*
X602107Y744781D02*
X604393Y744781D01*
X604393Y745505D02*
X602107Y745505D01*
X602107Y746229D02*
X604393Y746229D01*
X604393Y746953D02*
X602107Y746953D01*
X602107Y747677D02*
X604393Y747677D01*
X604393Y748401D02*
X602107Y748401D01*
X610893Y748667D02*
X610893Y743333D01*
X608607Y743333D01*
X608607Y748667D01*
X610893Y748667D01*
X610893Y744057D02*
X608607Y744057D01*
X608607Y744781D02*
X610893Y744781D01*
X610893Y745505D02*
X608607Y745505D01*
X608607Y746229D02*
X610893Y746229D01*
X610893Y746953D02*
X608607Y746953D01*
X608607Y747677D02*
X610893Y747677D01*
X610893Y748401D02*
X608607Y748401D01*
X608607Y771333D02*
X608607Y776667D01*
X610893Y776667D01*
X610893Y771333D01*
X608607Y771333D01*
X608607Y772057D02*
X610893Y772057D01*
X610893Y772781D02*
X608607Y772781D01*
X608607Y773505D02*
X610893Y773505D01*
X610893Y774229D02*
X608607Y774229D01*
X608607Y774953D02*
X610893Y774953D01*
X610893Y775677D02*
X608607Y775677D01*
X608607Y776401D02*
X610893Y776401D01*
X602107Y776667D02*
X602107Y771333D01*
X602107Y776667D02*
X604393Y776667D01*
X604393Y771333D01*
X602107Y771333D01*
X602107Y772057D02*
X604393Y772057D01*
X604393Y772781D02*
X602107Y772781D01*
X602107Y773505D02*
X604393Y773505D01*
X604393Y774229D02*
X602107Y774229D01*
X602107Y774953D02*
X604393Y774953D01*
X604393Y775677D02*
X602107Y775677D01*
X602107Y776401D02*
X604393Y776401D01*
X595607Y776667D02*
X595607Y771333D01*
X595607Y776667D02*
X597893Y776667D01*
X597893Y771333D01*
X595607Y771333D01*
X595607Y772057D02*
X597893Y772057D01*
X597893Y772781D02*
X595607Y772781D01*
X595607Y773505D02*
X597893Y773505D01*
X597893Y774229D02*
X595607Y774229D01*
X595607Y774953D02*
X597893Y774953D01*
X597893Y775677D02*
X595607Y775677D01*
X595607Y776401D02*
X597893Y776401D01*
X589107Y776667D02*
X589107Y771333D01*
X589107Y776667D02*
X591393Y776667D01*
X591393Y771333D01*
X589107Y771333D01*
X589107Y772057D02*
X591393Y772057D01*
X591393Y772781D02*
X589107Y772781D01*
X589107Y773505D02*
X591393Y773505D01*
X591393Y774229D02*
X589107Y774229D01*
X589107Y774953D02*
X591393Y774953D01*
X591393Y775677D02*
X589107Y775677D01*
X589107Y776401D02*
X591393Y776401D01*
D22*
X522500Y560000D03*
X522500Y555000D03*
X522500Y550000D03*
X522500Y545000D03*
X522500Y540000D03*
X522500Y535000D03*
X522500Y530000D03*
X522500Y525000D03*
X522500Y520000D03*
X522500Y515000D03*
X522500Y510000D03*
X522500Y505000D03*
X522500Y500000D03*
X522500Y495000D03*
X522500Y490000D03*
X522500Y485000D03*
X522500Y480000D03*
X522500Y475000D03*
X522500Y470000D03*
X522500Y465000D03*
X522500Y460000D03*
X522500Y455000D03*
X522500Y450000D03*
X522500Y445000D03*
X522500Y440000D03*
D23*
X540000Y422500D03*
X545000Y422500D03*
X550000Y422500D03*
X555000Y422500D03*
X560000Y422500D03*
X565000Y422500D03*
X570000Y422500D03*
X575000Y422500D03*
X580000Y422500D03*
X585000Y422500D03*
X590000Y422500D03*
X595000Y422500D03*
X600000Y422500D03*
X605000Y422500D03*
X610000Y422500D03*
X615000Y422500D03*
X620000Y422500D03*
X625000Y422500D03*
X630000Y422500D03*
X635000Y422500D03*
X640000Y422500D03*
X645000Y422500D03*
X650000Y422500D03*
X655000Y422500D03*
X660000Y422500D03*
D22*
X677500Y440000D03*
X677500Y445000D03*
X677500Y450000D03*
X677500Y455000D03*
X677500Y460000D03*
X677500Y465000D03*
X677500Y470000D03*
X677500Y475000D03*
X677500Y480000D03*
X677500Y485000D03*
X677500Y490000D03*
X677500Y495000D03*
X677500Y500000D03*
X677500Y505000D03*
X677500Y510000D03*
X677500Y515000D03*
X677500Y520000D03*
X677500Y525000D03*
X677500Y530000D03*
X677500Y535000D03*
X677500Y540000D03*
X677500Y545000D03*
X677500Y550000D03*
X677500Y555000D03*
X677500Y560000D03*
D23*
X660000Y577500D03*
X655000Y577500D03*
X650000Y577500D03*
X645000Y577500D03*
X640000Y577500D03*
X635000Y577500D03*
X630000Y577500D03*
X625000Y577500D03*
X620000Y577500D03*
X615000Y577500D03*
X610000Y577500D03*
X605000Y577500D03*
X600000Y577500D03*
X595000Y577500D03*
X590000Y577500D03*
X585000Y577500D03*
X580000Y577500D03*
X575000Y577500D03*
X570000Y577500D03*
X565000Y577500D03*
X560000Y577500D03*
X555000Y577500D03*
X550000Y577500D03*
X545000Y577500D03*
X540000Y577500D03*
D24*
X351000Y732500D03*
X351000Y727500D03*
X351000Y722500D03*
X351000Y717500D03*
X351000Y712500D03*
X351000Y707500D03*
D25*
X357500Y701000D03*
X362500Y701000D03*
X367500Y701000D03*
X372500Y701000D03*
X377500Y701000D03*
X382500Y701000D03*
D24*
X389000Y707500D03*
X389000Y712500D03*
X389000Y717500D03*
X389000Y722500D03*
X389000Y727500D03*
X389000Y732500D03*
D25*
X382500Y739000D03*
X377500Y739000D03*
X372500Y739000D03*
X367500Y739000D03*
X362500Y739000D03*
X357500Y739000D03*
D26*
X290250Y911000D03*
X296750Y911000D03*
X303250Y911000D03*
X309750Y911000D03*
X309750Y969000D03*
X303250Y969000D03*
X296750Y969000D03*
X290250Y969000D03*
D27*
X701000Y380000D03*
X679000Y370500D03*
X679000Y389500D03*
X81000Y850000D03*
X59000Y840500D03*
X59000Y859500D03*
D28*
X496000Y491000D03*
X496000Y503000D03*
X496000Y515000D03*
D29*
X458400Y437500D03*
X458400Y432500D03*
X458400Y427500D03*
X458400Y422500D03*
D30*
X465000Y420900D03*
X470000Y420900D03*
X475000Y420900D03*
D29*
X481600Y422500D03*
X481600Y427500D03*
X481600Y432500D03*
X481600Y437500D03*
D30*
X475000Y439100D03*
X470000Y439100D03*
X465000Y439100D03*
D11*
X492000Y433610D03*
X500000Y433610D03*
X479490Y400050D03*
X479490Y408050D03*
D14*
X491490Y392550D03*
X491490Y407550D03*
D11*
X470490Y400050D03*
X470490Y408050D03*
D13*
X918575Y759925D02*
X918575Y772075D01*
X945225Y772075D01*
X945225Y759925D01*
X918575Y759925D01*
X918575Y761207D02*
X945225Y761207D01*
X945225Y762489D02*
X918575Y762489D01*
X918575Y763771D02*
X945225Y763771D01*
X945225Y765053D02*
X918575Y765053D01*
X918575Y766335D02*
X945225Y766335D01*
X945225Y767617D02*
X918575Y767617D01*
X918575Y768899D02*
X945225Y768899D01*
X945225Y770181D02*
X918575Y770181D01*
X918575Y771463D02*
X945225Y771463D01*
X918575Y740075D02*
X918575Y727925D01*
X918575Y740075D02*
X945225Y740075D01*
X945225Y727925D01*
X918575Y727925D01*
X918575Y729207D02*
X945225Y729207D01*
X945225Y730489D02*
X918575Y730489D01*
X918575Y731771D02*
X945225Y731771D01*
X945225Y733053D02*
X918575Y733053D01*
X918575Y734335D02*
X945225Y734335D01*
X945225Y735617D02*
X918575Y735617D01*
X918575Y736899D02*
X945225Y736899D01*
X945225Y738181D02*
X918575Y738181D01*
X918575Y739463D02*
X945225Y739463D01*
X958575Y759925D02*
X958575Y772075D01*
X985225Y772075D01*
X985225Y759925D01*
X958575Y759925D01*
X958575Y761207D02*
X985225Y761207D01*
X985225Y762489D02*
X958575Y762489D01*
X958575Y763771D02*
X985225Y763771D01*
X985225Y765053D02*
X958575Y765053D01*
X958575Y766335D02*
X985225Y766335D01*
X985225Y767617D02*
X958575Y767617D01*
X958575Y768899D02*
X985225Y768899D01*
X985225Y770181D02*
X958575Y770181D01*
X958575Y771463D02*
X985225Y771463D01*
X958575Y740075D02*
X958575Y727925D01*
X958575Y740075D02*
X985225Y740075D01*
X985225Y727925D01*
X958575Y727925D01*
X958575Y729207D02*
X985225Y729207D01*
X985225Y730489D02*
X958575Y730489D01*
X958575Y731771D02*
X985225Y731771D01*
X985225Y733053D02*
X958575Y733053D01*
X958575Y734335D02*
X985225Y734335D01*
X985225Y735617D02*
X958575Y735617D01*
X958575Y736899D02*
X985225Y736899D01*
X985225Y738181D02*
X958575Y738181D01*
X958575Y739463D02*
X985225Y739463D01*
D10*
X884825Y762175D02*
X884825Y768825D01*
X898975Y768825D01*
X898975Y762175D01*
X884825Y762175D01*
X884825Y764882D02*
X898975Y764882D01*
X898975Y767589D02*
X884825Y767589D01*
X884825Y737825D02*
X884825Y731175D01*
X884825Y737825D02*
X898975Y737825D01*
X898975Y731175D01*
X884825Y731175D01*
X884825Y733882D02*
X898975Y733882D01*
X898975Y736589D02*
X884825Y736589D01*
D11*
X868100Y754000D03*
X868100Y746000D03*
X825500Y666000D03*
X825500Y674000D03*
D19*
X680000Y594500D03*
X680000Y605500D03*
X692500Y594500D03*
X692500Y605500D03*
X705000Y594500D03*
X705000Y605500D03*
D31*
X854741Y702496D03*
X854741Y707497D03*
X854741Y712498D03*
X854741Y717499D03*
X854741Y722501D03*
X854741Y727502D03*
X854741Y732503D03*
X854741Y737504D03*
D32*
X847504Y744741D03*
X842503Y744741D03*
X837502Y744741D03*
X832501Y744741D03*
X827499Y744741D03*
X822498Y744741D03*
X817497Y744741D03*
X812496Y744741D03*
D31*
X805259Y737504D03*
X805259Y732503D03*
X805259Y727502D03*
X805259Y722501D03*
X805259Y717499D03*
X805259Y712498D03*
X805259Y707497D03*
X805259Y702496D03*
D32*
X812496Y695259D03*
X817497Y695259D03*
X822498Y695259D03*
X827499Y695259D03*
X832501Y695259D03*
X837502Y695259D03*
X842503Y695259D03*
X847504Y695259D03*
D33*
X835000Y706500D03*
D34*
X835000Y715000D03*
X835000Y725000D03*
D33*
X835000Y733500D03*
X825000Y706500D03*
D34*
X825000Y715000D03*
X825000Y725000D03*
D33*
X825000Y733500D03*
D35*
X843500Y706500D03*
D36*
X843500Y715000D03*
X843500Y725000D03*
D35*
X843500Y733500D03*
X816500Y706500D03*
D36*
X816500Y715000D03*
X816500Y725000D03*
D35*
X816500Y733500D03*
D19*
X717500Y594500D03*
X717500Y605500D03*
X742500Y594500D03*
X742500Y605500D03*
X730000Y594500D03*
X730000Y605500D03*
D13*
X640075Y686675D02*
X627925Y686675D01*
X627925Y713325D01*
X640075Y713325D01*
X640075Y686675D01*
X640075Y687957D02*
X627925Y687957D01*
X627925Y689239D02*
X640075Y689239D01*
X640075Y690521D02*
X627925Y690521D01*
X627925Y691803D02*
X640075Y691803D01*
X640075Y693085D02*
X627925Y693085D01*
X627925Y694367D02*
X640075Y694367D01*
X640075Y695649D02*
X627925Y695649D01*
X627925Y696931D02*
X640075Y696931D01*
X640075Y698213D02*
X627925Y698213D01*
X627925Y699495D02*
X640075Y699495D01*
X640075Y700777D02*
X627925Y700777D01*
X627925Y702059D02*
X640075Y702059D01*
X640075Y703341D02*
X627925Y703341D01*
X627925Y704623D02*
X640075Y704623D01*
X640075Y705905D02*
X627925Y705905D01*
X627925Y707187D02*
X640075Y707187D01*
X640075Y708469D02*
X627925Y708469D01*
X627925Y709751D02*
X640075Y709751D01*
X640075Y711033D02*
X627925Y711033D01*
X627925Y712315D02*
X640075Y712315D01*
X659925Y686675D02*
X672075Y686675D01*
X659925Y686675D02*
X659925Y713325D01*
X672075Y713325D01*
X672075Y686675D01*
X672075Y687957D02*
X659925Y687957D01*
X659925Y689239D02*
X672075Y689239D01*
X672075Y690521D02*
X659925Y690521D01*
X659925Y691803D02*
X672075Y691803D01*
X672075Y693085D02*
X659925Y693085D01*
X659925Y694367D02*
X672075Y694367D01*
X672075Y695649D02*
X659925Y695649D01*
X659925Y696931D02*
X672075Y696931D01*
X672075Y698213D02*
X659925Y698213D01*
X659925Y699495D02*
X672075Y699495D01*
X672075Y700777D02*
X659925Y700777D01*
X659925Y702059D02*
X672075Y702059D01*
X672075Y703341D02*
X659925Y703341D01*
X659925Y704623D02*
X672075Y704623D01*
X672075Y705905D02*
X659925Y705905D01*
X659925Y707187D02*
X672075Y707187D01*
X672075Y708469D02*
X659925Y708469D01*
X659925Y709751D02*
X672075Y709751D01*
X672075Y711033D02*
X659925Y711033D01*
X659925Y712315D02*
X672075Y712315D01*
D10*
X581925Y671825D02*
X581925Y665175D01*
X581925Y671825D02*
X596075Y671825D01*
X596075Y665175D01*
X581925Y665175D01*
X581925Y667882D02*
X596075Y667882D01*
X596075Y670589D02*
X581925Y670589D01*
X581925Y640825D02*
X581925Y634175D01*
X581925Y640825D02*
X596075Y640825D01*
X596075Y634175D01*
X581925Y634175D01*
X581925Y636882D02*
X596075Y636882D01*
X596075Y639589D02*
X581925Y639589D01*
D13*
X246675Y759925D02*
X246675Y772075D01*
X273325Y772075D01*
X273325Y759925D01*
X246675Y759925D01*
X246675Y761207D02*
X273325Y761207D01*
X273325Y762489D02*
X246675Y762489D01*
X246675Y763771D02*
X273325Y763771D01*
X273325Y765053D02*
X246675Y765053D01*
X246675Y766335D02*
X273325Y766335D01*
X273325Y767617D02*
X246675Y767617D01*
X246675Y768899D02*
X273325Y768899D01*
X273325Y770181D02*
X246675Y770181D01*
X246675Y771463D02*
X273325Y771463D01*
X246675Y740075D02*
X246675Y727925D01*
X246675Y740075D02*
X273325Y740075D01*
X273325Y727925D01*
X246675Y727925D01*
X246675Y729207D02*
X273325Y729207D01*
X273325Y730489D02*
X246675Y730489D01*
X246675Y731771D02*
X273325Y731771D01*
X273325Y733053D02*
X246675Y733053D01*
X246675Y734335D02*
X273325Y734335D01*
X273325Y735617D02*
X246675Y735617D01*
X246675Y736899D02*
X273325Y736899D01*
X273325Y738181D02*
X246675Y738181D01*
X246675Y739463D02*
X273325Y739463D01*
X416675Y759925D02*
X416675Y772075D01*
X443325Y772075D01*
X443325Y759925D01*
X416675Y759925D01*
X416675Y761207D02*
X443325Y761207D01*
X443325Y762489D02*
X416675Y762489D01*
X416675Y763771D02*
X443325Y763771D01*
X443325Y765053D02*
X416675Y765053D01*
X416675Y766335D02*
X443325Y766335D01*
X443325Y767617D02*
X416675Y767617D01*
X416675Y768899D02*
X443325Y768899D01*
X443325Y770181D02*
X416675Y770181D01*
X416675Y771463D02*
X443325Y771463D01*
X416675Y740075D02*
X416675Y727925D01*
X416675Y740075D02*
X443325Y740075D01*
X443325Y727925D01*
X416675Y727925D01*
X416675Y729207D02*
X443325Y729207D01*
X443325Y730489D02*
X416675Y730489D01*
X416675Y731771D02*
X443325Y731771D01*
X443325Y733053D02*
X416675Y733053D01*
X416675Y734335D02*
X443325Y734335D01*
X443325Y735617D02*
X416675Y735617D01*
X416675Y736899D02*
X443325Y736899D01*
X443325Y738181D02*
X416675Y738181D01*
X416675Y739463D02*
X443325Y739463D01*
X756675Y759925D02*
X756675Y772075D01*
X783325Y772075D01*
X783325Y759925D01*
X756675Y759925D01*
X756675Y761207D02*
X783325Y761207D01*
X783325Y762489D02*
X756675Y762489D01*
X756675Y763771D02*
X783325Y763771D01*
X783325Y765053D02*
X756675Y765053D01*
X756675Y766335D02*
X783325Y766335D01*
X783325Y767617D02*
X756675Y767617D01*
X756675Y768899D02*
X783325Y768899D01*
X783325Y770181D02*
X756675Y770181D01*
X756675Y771463D02*
X783325Y771463D01*
X756675Y740075D02*
X756675Y727925D01*
X756675Y740075D02*
X783325Y740075D01*
X783325Y727925D01*
X756675Y727925D01*
X756675Y729207D02*
X783325Y729207D01*
X783325Y730489D02*
X756675Y730489D01*
X756675Y731771D02*
X783325Y731771D01*
X783325Y733053D02*
X756675Y733053D01*
X756675Y734335D02*
X783325Y734335D01*
X783325Y735617D02*
X756675Y735617D01*
X756675Y736899D02*
X783325Y736899D01*
X783325Y738181D02*
X756675Y738181D01*
X756675Y739463D02*
X783325Y739463D01*
X716675Y759925D02*
X716675Y772075D01*
X743325Y772075D01*
X743325Y759925D01*
X716675Y759925D01*
X716675Y761207D02*
X743325Y761207D01*
X743325Y762489D02*
X716675Y762489D01*
X716675Y763771D02*
X743325Y763771D01*
X743325Y765053D02*
X716675Y765053D01*
X716675Y766335D02*
X743325Y766335D01*
X743325Y767617D02*
X716675Y767617D01*
X716675Y768899D02*
X743325Y768899D01*
X743325Y770181D02*
X716675Y770181D01*
X716675Y771463D02*
X743325Y771463D01*
X716675Y740075D02*
X716675Y727925D01*
X716675Y740075D02*
X743325Y740075D01*
X743325Y727925D01*
X716675Y727925D01*
X716675Y729207D02*
X743325Y729207D01*
X743325Y730489D02*
X716675Y730489D01*
X716675Y731771D02*
X743325Y731771D01*
X743325Y733053D02*
X716675Y733053D01*
X716675Y734335D02*
X743325Y734335D01*
X743325Y735617D02*
X716675Y735617D01*
X716675Y736899D02*
X743325Y736899D01*
X743325Y738181D02*
X716675Y738181D01*
X716675Y739463D02*
X743325Y739463D01*
D15*
X123295Y570000D03*
X101705Y570000D03*
X123295Y530000D03*
X101705Y530000D03*
X123295Y490000D03*
X101705Y490000D03*
X123295Y450000D03*
X101705Y450000D03*
X123295Y550000D03*
X101705Y550000D03*
X123295Y510000D03*
X101705Y510000D03*
X123295Y470000D03*
X101705Y470000D03*
X123295Y430000D03*
X101705Y430000D03*
X826705Y470000D03*
X848295Y470000D03*
X826705Y490000D03*
X848295Y490000D03*
X373295Y570000D03*
X351705Y570000D03*
X373295Y530000D03*
X351705Y530000D03*
X373295Y490000D03*
X351705Y490000D03*
X373295Y450000D03*
X351705Y450000D03*
X373295Y550000D03*
X351705Y550000D03*
X373295Y510000D03*
X351705Y510000D03*
X373295Y470000D03*
X351705Y470000D03*
X373295Y430000D03*
X351705Y430000D03*
X826705Y510000D03*
X848295Y510000D03*
X826705Y530000D03*
X848295Y530000D03*
X1076705Y430000D03*
X1098295Y430000D03*
X1076705Y450000D03*
X1098295Y450000D03*
X1076705Y470000D03*
X1098295Y470000D03*
X1076705Y490000D03*
X1098295Y490000D03*
X1076705Y510000D03*
X1098295Y510000D03*
X1076705Y530000D03*
X1098295Y530000D03*
X1076705Y550000D03*
X1098295Y550000D03*
X1076705Y570000D03*
X1098295Y570000D03*
X826705Y430000D03*
X848295Y430000D03*
X826705Y450000D03*
X848295Y450000D03*
X826705Y550000D03*
X848295Y550000D03*
X826705Y570000D03*
X848295Y570000D03*
D37*
X1099500Y408020D03*
X1091500Y408020D03*
X1083500Y408020D03*
X1075500Y408020D03*
X1075500Y391980D03*
X1083500Y391980D03*
X1091500Y391980D03*
X1099500Y391980D03*
X1075500Y591980D03*
X1083500Y591980D03*
X1091500Y591980D03*
X1099500Y591980D03*
X1099500Y608020D03*
X1091500Y608020D03*
X1083500Y608020D03*
X1075500Y608020D03*
X849500Y408020D03*
X841500Y408020D03*
X833500Y408020D03*
X825500Y408020D03*
X825500Y391980D03*
X833500Y391980D03*
X841500Y391980D03*
X849500Y391980D03*
X825500Y591980D03*
X833500Y591980D03*
X841500Y591980D03*
X849500Y591980D03*
X849500Y608020D03*
X841500Y608020D03*
X833500Y608020D03*
X825500Y608020D03*
X100500Y591980D03*
X108500Y591980D03*
X116500Y591980D03*
X124500Y591980D03*
X124500Y608020D03*
X116500Y608020D03*
X108500Y608020D03*
X100500Y608020D03*
X124500Y408020D03*
X116500Y408020D03*
X108500Y408020D03*
X100500Y408020D03*
X100500Y391980D03*
X108500Y391980D03*
X116500Y391980D03*
X124500Y391980D03*
X350500Y591980D03*
X358500Y591980D03*
X366500Y591980D03*
X374500Y591980D03*
X374500Y608020D03*
X366500Y608020D03*
X358500Y608020D03*
X350500Y608020D03*
X374500Y408020D03*
X366500Y408020D03*
X358500Y408020D03*
X350500Y408020D03*
X350500Y391980D03*
X358500Y391980D03*
X366500Y391980D03*
X374500Y391980D03*
M02*
