G04 EAGLE Gerber RS-274X export*
G75*
%MOMM*%
%FSLAX34Y34*%
%LPD*%
%INSoldermask Top*%
%IPPOS*%
%AMOC8*
5,1,8,0,0,1.08239X$1,22.5*%
G01*
%ADD10C,3.203200*%
%ADD11R,4.000000X9.000000*%
%ADD12C,0.484344*%
%ADD13R,0.590000X0.620000*%
%ADD14R,1.003200X1.103200*%
%ADD15C,0.341703*%
%ADD16R,1.103200X1.003200*%
%ADD17R,0.620000X0.590000*%
%ADD18R,1.473200X1.473200*%
%ADD19R,0.560000X0.500000*%
%ADD20R,0.980000X0.500000*%
%ADD21R,1.200000X1.150000*%
%ADD22R,0.803200X0.803200*%
%ADD23R,1.603200X1.603200*%
%ADD24C,1.812800*%
%ADD25C,2.403200*%
%ADD26C,0.350000*%
%ADD27C,2.012800*%
%ADD28C,2.003200*%
%ADD29C,1.473200*%
%ADD30C,0.279400*%
%ADD31R,2.590800X1.854200*%
%ADD32R,1.397000X0.508000*%
%ADD33R,0.508000X1.397000*%
%ADD34R,0.812800X0.431800*%
%ADD35R,0.431800X0.812800*%
%ADD36R,2.997200X2.997200*%
%ADD37R,0.660400X1.701800*%
%ADD38R,1.603200X1.203200*%
%ADD39R,2.103200X0.603200*%
%ADD40R,0.813200X0.503200*%
%ADD41R,0.503200X0.813200*%
%ADD42R,1.011200X0.428000*%
%ADD43R,0.428000X1.011200*%
%ADD44C,0.385350*%
%ADD45R,2.012800X2.012800*%
%ADD46R,1.625600X1.625600*%
%ADD47P,1.759533X8X202.500000*%
%ADD48P,1.759533X8X22.500000*%
%ADD49P,1.759533X8X292.500000*%
%ADD50P,1.979475X8X292.500000*%
%ADD51P,1.979475X8X202.500000*%
%ADD52P,1.979475X8X22.500000*%
%ADD53R,0.703200X1.203200*%


D10*
X1150000Y990000D03*
X1150000Y50000D03*
X50000Y50000D03*
X50000Y990000D03*
D11*
X1129860Y845470D03*
D10*
X600000Y50000D03*
D12*
X587845Y792905D02*
X581155Y792905D01*
X581155Y807095D01*
X587845Y807095D01*
X587845Y792905D01*
X587845Y797506D02*
X581155Y797506D01*
X581155Y802107D02*
X587845Y802107D01*
X587845Y806708D02*
X581155Y806708D01*
X612155Y792905D02*
X618845Y792905D01*
X612155Y792905D02*
X612155Y807095D01*
X618845Y807095D01*
X618845Y792905D01*
X618845Y797506D02*
X612155Y797506D01*
X612155Y802107D02*
X618845Y802107D01*
X618845Y806708D02*
X612155Y806708D01*
D13*
X670050Y266000D03*
X670050Y274000D03*
X526050Y586000D03*
X526050Y594000D03*
D14*
X682500Y410000D03*
X697500Y410000D03*
X682500Y350000D03*
X697500Y350000D03*
X62500Y880000D03*
X77500Y880000D03*
X62500Y820000D03*
X77500Y820000D03*
D13*
X581950Y402500D03*
X581950Y394500D03*
D15*
X572058Y713308D02*
X559942Y713308D01*
X572058Y713308D02*
X572058Y686692D01*
X559942Y686692D01*
X559942Y713308D01*
X559942Y689938D02*
X572058Y689938D01*
X572058Y693184D02*
X559942Y693184D01*
X559942Y696430D02*
X572058Y696430D01*
X572058Y699676D02*
X559942Y699676D01*
X559942Y702922D02*
X572058Y702922D01*
X572058Y706168D02*
X559942Y706168D01*
X559942Y709414D02*
X572058Y709414D01*
X572058Y712660D02*
X559942Y712660D01*
X540058Y713308D02*
X527942Y713308D01*
X540058Y713308D02*
X540058Y686692D01*
X527942Y686692D01*
X527942Y713308D01*
X527942Y689938D02*
X540058Y689938D01*
X540058Y693184D02*
X527942Y693184D01*
X527942Y696430D02*
X540058Y696430D01*
X540058Y699676D02*
X527942Y699676D01*
X527942Y702922D02*
X540058Y702922D01*
X540058Y706168D02*
X527942Y706168D01*
X527942Y709414D02*
X540058Y709414D01*
X540058Y712660D02*
X527942Y712660D01*
D16*
X613000Y668500D03*
X613000Y653500D03*
D17*
X492000Y454130D03*
X500000Y454130D03*
X500000Y529590D03*
X492000Y529590D03*
X657000Y404050D03*
X649000Y404050D03*
D13*
X695950Y509000D03*
X695950Y501000D03*
D17*
X680920Y573760D03*
X688920Y573760D03*
D16*
X570000Y387500D03*
X570000Y402500D03*
D17*
X414000Y180050D03*
X406000Y180050D03*
D13*
X590950Y402500D03*
X590950Y394500D03*
D15*
X456692Y759942D02*
X456692Y772058D01*
X483308Y772058D01*
X483308Y759942D01*
X456692Y759942D01*
X456692Y763188D02*
X483308Y763188D01*
X483308Y766434D02*
X456692Y766434D01*
X456692Y769680D02*
X483308Y769680D01*
X456692Y740058D02*
X456692Y727942D01*
X456692Y740058D02*
X483308Y740058D01*
X483308Y727942D01*
X456692Y727942D01*
X456692Y731188D02*
X483308Y731188D01*
X483308Y734434D02*
X456692Y734434D01*
X456692Y737680D02*
X483308Y737680D01*
X206692Y759942D02*
X206692Y772058D01*
X233308Y772058D01*
X233308Y759942D01*
X206692Y759942D01*
X206692Y763188D02*
X233308Y763188D01*
X233308Y766434D02*
X206692Y766434D01*
X206692Y769680D02*
X233308Y769680D01*
X206692Y740058D02*
X206692Y727942D01*
X206692Y740058D02*
X233308Y740058D01*
X233308Y727942D01*
X206692Y727942D01*
X206692Y731188D02*
X233308Y731188D01*
X233308Y734434D02*
X206692Y734434D01*
X206692Y737680D02*
X233308Y737680D01*
D12*
X511155Y792905D02*
X517845Y792905D01*
X511155Y792905D02*
X511155Y807095D01*
X517845Y807095D01*
X517845Y792905D01*
X517845Y797506D02*
X511155Y797506D01*
X511155Y802107D02*
X517845Y802107D01*
X517845Y806708D02*
X511155Y806708D01*
X542155Y792905D02*
X548845Y792905D01*
X542155Y792905D02*
X542155Y807095D01*
X548845Y807095D01*
X548845Y792905D01*
X548845Y797506D02*
X542155Y797506D01*
X542155Y802107D02*
X548845Y802107D01*
X548845Y806708D02*
X542155Y806708D01*
X228845Y807095D02*
X222155Y807095D01*
X228845Y807095D02*
X228845Y792905D01*
X222155Y792905D01*
X222155Y807095D01*
X222155Y797506D02*
X228845Y797506D01*
X228845Y802107D02*
X222155Y802107D01*
X222155Y806708D02*
X228845Y806708D01*
X197845Y807095D02*
X191155Y807095D01*
X197845Y807095D02*
X197845Y792905D01*
X191155Y792905D01*
X191155Y807095D01*
X191155Y797506D02*
X197845Y797506D01*
X197845Y802107D02*
X191155Y802107D01*
X191155Y806708D02*
X197845Y806708D01*
D17*
X974000Y180050D03*
X966000Y180050D03*
X224000Y820050D03*
X216000Y820050D03*
X518000Y819950D03*
X526000Y819950D03*
D16*
X330000Y737500D03*
X330000Y722500D03*
D13*
X329950Y704000D03*
X329950Y696000D03*
D12*
X287905Y762155D02*
X287905Y768845D01*
X302095Y768845D01*
X302095Y762155D01*
X287905Y762155D01*
X287905Y766756D02*
X302095Y766756D01*
X287905Y737845D02*
X287905Y731155D01*
X287905Y737845D02*
X302095Y737845D01*
X302095Y731155D01*
X287905Y731155D01*
X287905Y735756D02*
X302095Y735756D01*
D17*
X234000Y180050D03*
X226000Y180050D03*
D13*
X314950Y740000D03*
X314950Y732000D03*
D16*
X333000Y662500D03*
X333000Y677500D03*
X348000Y662500D03*
X348000Y677500D03*
D17*
X294000Y990050D03*
X286000Y990050D03*
X306000Y989950D03*
X314000Y989950D03*
X794000Y180050D03*
X786000Y180050D03*
D18*
X680795Y800000D03*
X659205Y800000D03*
D19*
X499200Y813500D03*
X499200Y820000D03*
X499200Y826500D03*
X480800Y813500D03*
X480800Y820000D03*
X480800Y826500D03*
D20*
X489100Y826500D03*
D21*
X490000Y816750D03*
D19*
X259200Y813500D03*
X259200Y820000D03*
X259200Y826500D03*
X240800Y813500D03*
X240800Y820000D03*
X240800Y826500D03*
D20*
X249100Y826500D03*
D21*
X250000Y816750D03*
D19*
X320800Y826500D03*
X320800Y820000D03*
X320800Y813500D03*
X339200Y826500D03*
X339200Y820000D03*
X339200Y813500D03*
D20*
X330900Y813500D03*
D21*
X330000Y823250D03*
D19*
X400800Y826500D03*
X400800Y820000D03*
X400800Y813500D03*
X419200Y826500D03*
X419200Y820000D03*
X419200Y813500D03*
D20*
X410900Y813500D03*
D21*
X410000Y823250D03*
D22*
X415500Y40000D03*
X404500Y40000D03*
D23*
X289000Y880000D03*
X311000Y880000D03*
D22*
X361000Y675500D03*
X361000Y664500D03*
X372000Y675500D03*
X372000Y664500D03*
X383000Y664500D03*
X383000Y675500D03*
D24*
X815000Y348048D02*
X815000Y331952D01*
X790000Y331952D02*
X790000Y348048D01*
X765000Y348048D02*
X765000Y331952D01*
D25*
X836000Y270000D03*
X744000Y270000D03*
D26*
X823000Y270000D02*
X823004Y270319D01*
X823016Y270638D01*
X823035Y270956D01*
X823063Y271274D01*
X823098Y271591D01*
X823141Y271907D01*
X823191Y272223D01*
X823250Y272536D01*
X823316Y272848D01*
X823390Y273159D01*
X823471Y273467D01*
X823560Y273774D01*
X823656Y274078D01*
X823760Y274380D01*
X823871Y274679D01*
X823990Y274975D01*
X824115Y275268D01*
X824248Y275558D01*
X824388Y275845D01*
X824535Y276128D01*
X824689Y276408D01*
X824850Y276683D01*
X825017Y276955D01*
X825191Y277222D01*
X825371Y277486D01*
X825558Y277744D01*
X825751Y277998D01*
X825951Y278247D01*
X826156Y278491D01*
X826368Y278730D01*
X826585Y278964D01*
X826808Y279192D01*
X827036Y279415D01*
X827270Y279632D01*
X827509Y279844D01*
X827753Y280049D01*
X828002Y280249D01*
X828256Y280442D01*
X828514Y280629D01*
X828778Y280809D01*
X829045Y280983D01*
X829317Y281150D01*
X829592Y281311D01*
X829872Y281465D01*
X830155Y281612D01*
X830442Y281752D01*
X830732Y281885D01*
X831025Y282010D01*
X831321Y282129D01*
X831620Y282240D01*
X831922Y282344D01*
X832226Y282440D01*
X832533Y282529D01*
X832841Y282610D01*
X833152Y282684D01*
X833464Y282750D01*
X833777Y282809D01*
X834093Y282859D01*
X834409Y282902D01*
X834726Y282937D01*
X835044Y282965D01*
X835362Y282984D01*
X835681Y282996D01*
X836000Y283000D01*
X836319Y282996D01*
X836638Y282984D01*
X836956Y282965D01*
X837274Y282937D01*
X837591Y282902D01*
X837907Y282859D01*
X838223Y282809D01*
X838536Y282750D01*
X838848Y282684D01*
X839159Y282610D01*
X839467Y282529D01*
X839774Y282440D01*
X840078Y282344D01*
X840380Y282240D01*
X840679Y282129D01*
X840975Y282010D01*
X841268Y281885D01*
X841558Y281752D01*
X841845Y281612D01*
X842128Y281465D01*
X842408Y281311D01*
X842683Y281150D01*
X842955Y280983D01*
X843222Y280809D01*
X843486Y280629D01*
X843744Y280442D01*
X843998Y280249D01*
X844247Y280049D01*
X844491Y279844D01*
X844730Y279632D01*
X844964Y279415D01*
X845192Y279192D01*
X845415Y278964D01*
X845632Y278730D01*
X845844Y278491D01*
X846049Y278247D01*
X846249Y277998D01*
X846442Y277744D01*
X846629Y277486D01*
X846809Y277222D01*
X846983Y276955D01*
X847150Y276683D01*
X847311Y276408D01*
X847465Y276128D01*
X847612Y275845D01*
X847752Y275558D01*
X847885Y275268D01*
X848010Y274975D01*
X848129Y274679D01*
X848240Y274380D01*
X848344Y274078D01*
X848440Y273774D01*
X848529Y273467D01*
X848610Y273159D01*
X848684Y272848D01*
X848750Y272536D01*
X848809Y272223D01*
X848859Y271907D01*
X848902Y271591D01*
X848937Y271274D01*
X848965Y270956D01*
X848984Y270638D01*
X848996Y270319D01*
X849000Y270000D01*
X848996Y269681D01*
X848984Y269362D01*
X848965Y269044D01*
X848937Y268726D01*
X848902Y268409D01*
X848859Y268093D01*
X848809Y267777D01*
X848750Y267464D01*
X848684Y267152D01*
X848610Y266841D01*
X848529Y266533D01*
X848440Y266226D01*
X848344Y265922D01*
X848240Y265620D01*
X848129Y265321D01*
X848010Y265025D01*
X847885Y264732D01*
X847752Y264442D01*
X847612Y264155D01*
X847465Y263872D01*
X847311Y263592D01*
X847150Y263317D01*
X846983Y263045D01*
X846809Y262778D01*
X846629Y262514D01*
X846442Y262256D01*
X846249Y262002D01*
X846049Y261753D01*
X845844Y261509D01*
X845632Y261270D01*
X845415Y261036D01*
X845192Y260808D01*
X844964Y260585D01*
X844730Y260368D01*
X844491Y260156D01*
X844247Y259951D01*
X843998Y259751D01*
X843744Y259558D01*
X843486Y259371D01*
X843222Y259191D01*
X842955Y259017D01*
X842683Y258850D01*
X842408Y258689D01*
X842128Y258535D01*
X841845Y258388D01*
X841558Y258248D01*
X841268Y258115D01*
X840975Y257990D01*
X840679Y257871D01*
X840380Y257760D01*
X840078Y257656D01*
X839774Y257560D01*
X839467Y257471D01*
X839159Y257390D01*
X838848Y257316D01*
X838536Y257250D01*
X838223Y257191D01*
X837907Y257141D01*
X837591Y257098D01*
X837274Y257063D01*
X836956Y257035D01*
X836638Y257016D01*
X836319Y257004D01*
X836000Y257000D01*
X835681Y257004D01*
X835362Y257016D01*
X835044Y257035D01*
X834726Y257063D01*
X834409Y257098D01*
X834093Y257141D01*
X833777Y257191D01*
X833464Y257250D01*
X833152Y257316D01*
X832841Y257390D01*
X832533Y257471D01*
X832226Y257560D01*
X831922Y257656D01*
X831620Y257760D01*
X831321Y257871D01*
X831025Y257990D01*
X830732Y258115D01*
X830442Y258248D01*
X830155Y258388D01*
X829872Y258535D01*
X829592Y258689D01*
X829317Y258850D01*
X829045Y259017D01*
X828778Y259191D01*
X828514Y259371D01*
X828256Y259558D01*
X828002Y259751D01*
X827753Y259951D01*
X827509Y260156D01*
X827270Y260368D01*
X827036Y260585D01*
X826808Y260808D01*
X826585Y261036D01*
X826368Y261270D01*
X826156Y261509D01*
X825951Y261753D01*
X825751Y262002D01*
X825558Y262256D01*
X825371Y262514D01*
X825191Y262778D01*
X825017Y263045D01*
X824850Y263317D01*
X824689Y263592D01*
X824535Y263872D01*
X824388Y264155D01*
X824248Y264442D01*
X824115Y264732D01*
X823990Y265025D01*
X823871Y265321D01*
X823760Y265620D01*
X823656Y265922D01*
X823560Y266226D01*
X823471Y266533D01*
X823390Y266841D01*
X823316Y267152D01*
X823250Y267464D01*
X823191Y267777D01*
X823141Y268093D01*
X823098Y268409D01*
X823063Y268726D01*
X823035Y269044D01*
X823016Y269362D01*
X823004Y269681D01*
X823000Y270000D01*
X731000Y270000D02*
X731004Y270319D01*
X731016Y270638D01*
X731035Y270956D01*
X731063Y271274D01*
X731098Y271591D01*
X731141Y271907D01*
X731191Y272223D01*
X731250Y272536D01*
X731316Y272848D01*
X731390Y273159D01*
X731471Y273467D01*
X731560Y273774D01*
X731656Y274078D01*
X731760Y274380D01*
X731871Y274679D01*
X731990Y274975D01*
X732115Y275268D01*
X732248Y275558D01*
X732388Y275845D01*
X732535Y276128D01*
X732689Y276408D01*
X732850Y276683D01*
X733017Y276955D01*
X733191Y277222D01*
X733371Y277486D01*
X733558Y277744D01*
X733751Y277998D01*
X733951Y278247D01*
X734156Y278491D01*
X734368Y278730D01*
X734585Y278964D01*
X734808Y279192D01*
X735036Y279415D01*
X735270Y279632D01*
X735509Y279844D01*
X735753Y280049D01*
X736002Y280249D01*
X736256Y280442D01*
X736514Y280629D01*
X736778Y280809D01*
X737045Y280983D01*
X737317Y281150D01*
X737592Y281311D01*
X737872Y281465D01*
X738155Y281612D01*
X738442Y281752D01*
X738732Y281885D01*
X739025Y282010D01*
X739321Y282129D01*
X739620Y282240D01*
X739922Y282344D01*
X740226Y282440D01*
X740533Y282529D01*
X740841Y282610D01*
X741152Y282684D01*
X741464Y282750D01*
X741777Y282809D01*
X742093Y282859D01*
X742409Y282902D01*
X742726Y282937D01*
X743044Y282965D01*
X743362Y282984D01*
X743681Y282996D01*
X744000Y283000D01*
X744319Y282996D01*
X744638Y282984D01*
X744956Y282965D01*
X745274Y282937D01*
X745591Y282902D01*
X745907Y282859D01*
X746223Y282809D01*
X746536Y282750D01*
X746848Y282684D01*
X747159Y282610D01*
X747467Y282529D01*
X747774Y282440D01*
X748078Y282344D01*
X748380Y282240D01*
X748679Y282129D01*
X748975Y282010D01*
X749268Y281885D01*
X749558Y281752D01*
X749845Y281612D01*
X750128Y281465D01*
X750408Y281311D01*
X750683Y281150D01*
X750955Y280983D01*
X751222Y280809D01*
X751486Y280629D01*
X751744Y280442D01*
X751998Y280249D01*
X752247Y280049D01*
X752491Y279844D01*
X752730Y279632D01*
X752964Y279415D01*
X753192Y279192D01*
X753415Y278964D01*
X753632Y278730D01*
X753844Y278491D01*
X754049Y278247D01*
X754249Y277998D01*
X754442Y277744D01*
X754629Y277486D01*
X754809Y277222D01*
X754983Y276955D01*
X755150Y276683D01*
X755311Y276408D01*
X755465Y276128D01*
X755612Y275845D01*
X755752Y275558D01*
X755885Y275268D01*
X756010Y274975D01*
X756129Y274679D01*
X756240Y274380D01*
X756344Y274078D01*
X756440Y273774D01*
X756529Y273467D01*
X756610Y273159D01*
X756684Y272848D01*
X756750Y272536D01*
X756809Y272223D01*
X756859Y271907D01*
X756902Y271591D01*
X756937Y271274D01*
X756965Y270956D01*
X756984Y270638D01*
X756996Y270319D01*
X757000Y270000D01*
X756996Y269681D01*
X756984Y269362D01*
X756965Y269044D01*
X756937Y268726D01*
X756902Y268409D01*
X756859Y268093D01*
X756809Y267777D01*
X756750Y267464D01*
X756684Y267152D01*
X756610Y266841D01*
X756529Y266533D01*
X756440Y266226D01*
X756344Y265922D01*
X756240Y265620D01*
X756129Y265321D01*
X756010Y265025D01*
X755885Y264732D01*
X755752Y264442D01*
X755612Y264155D01*
X755465Y263872D01*
X755311Y263592D01*
X755150Y263317D01*
X754983Y263045D01*
X754809Y262778D01*
X754629Y262514D01*
X754442Y262256D01*
X754249Y262002D01*
X754049Y261753D01*
X753844Y261509D01*
X753632Y261270D01*
X753415Y261036D01*
X753192Y260808D01*
X752964Y260585D01*
X752730Y260368D01*
X752491Y260156D01*
X752247Y259951D01*
X751998Y259751D01*
X751744Y259558D01*
X751486Y259371D01*
X751222Y259191D01*
X750955Y259017D01*
X750683Y258850D01*
X750408Y258689D01*
X750128Y258535D01*
X749845Y258388D01*
X749558Y258248D01*
X749268Y258115D01*
X748975Y257990D01*
X748679Y257871D01*
X748380Y257760D01*
X748078Y257656D01*
X747774Y257560D01*
X747467Y257471D01*
X747159Y257390D01*
X746848Y257316D01*
X746536Y257250D01*
X746223Y257191D01*
X745907Y257141D01*
X745591Y257098D01*
X745274Y257063D01*
X744956Y257035D01*
X744638Y257016D01*
X744319Y257004D01*
X744000Y257000D01*
X743681Y257004D01*
X743362Y257016D01*
X743044Y257035D01*
X742726Y257063D01*
X742409Y257098D01*
X742093Y257141D01*
X741777Y257191D01*
X741464Y257250D01*
X741152Y257316D01*
X740841Y257390D01*
X740533Y257471D01*
X740226Y257560D01*
X739922Y257656D01*
X739620Y257760D01*
X739321Y257871D01*
X739025Y257990D01*
X738732Y258115D01*
X738442Y258248D01*
X738155Y258388D01*
X737872Y258535D01*
X737592Y258689D01*
X737317Y258850D01*
X737045Y259017D01*
X736778Y259191D01*
X736514Y259371D01*
X736256Y259558D01*
X736002Y259751D01*
X735753Y259951D01*
X735509Y260156D01*
X735270Y260368D01*
X735036Y260585D01*
X734808Y260808D01*
X734585Y261036D01*
X734368Y261270D01*
X734156Y261509D01*
X733951Y261753D01*
X733751Y262002D01*
X733558Y262256D01*
X733371Y262514D01*
X733191Y262778D01*
X733017Y263045D01*
X732850Y263317D01*
X732689Y263592D01*
X732535Y263872D01*
X732388Y264155D01*
X732248Y264442D01*
X732115Y264732D01*
X731990Y265025D01*
X731871Y265321D01*
X731760Y265620D01*
X731656Y265922D01*
X731560Y266226D01*
X731471Y266533D01*
X731390Y266841D01*
X731316Y267152D01*
X731250Y267464D01*
X731191Y267777D01*
X731141Y268093D01*
X731098Y268409D01*
X731063Y268726D01*
X731035Y269044D01*
X731016Y269362D01*
X731004Y269681D01*
X731000Y270000D01*
D24*
X995000Y331952D02*
X995000Y348048D01*
X970000Y348048D02*
X970000Y331952D01*
X945000Y331952D02*
X945000Y348048D01*
D25*
X1016000Y270000D03*
X924000Y270000D03*
D26*
X1003000Y270000D02*
X1003004Y270319D01*
X1003016Y270638D01*
X1003035Y270956D01*
X1003063Y271274D01*
X1003098Y271591D01*
X1003141Y271907D01*
X1003191Y272223D01*
X1003250Y272536D01*
X1003316Y272848D01*
X1003390Y273159D01*
X1003471Y273467D01*
X1003560Y273774D01*
X1003656Y274078D01*
X1003760Y274380D01*
X1003871Y274679D01*
X1003990Y274975D01*
X1004115Y275268D01*
X1004248Y275558D01*
X1004388Y275845D01*
X1004535Y276128D01*
X1004689Y276408D01*
X1004850Y276683D01*
X1005017Y276955D01*
X1005191Y277222D01*
X1005371Y277486D01*
X1005558Y277744D01*
X1005751Y277998D01*
X1005951Y278247D01*
X1006156Y278491D01*
X1006368Y278730D01*
X1006585Y278964D01*
X1006808Y279192D01*
X1007036Y279415D01*
X1007270Y279632D01*
X1007509Y279844D01*
X1007753Y280049D01*
X1008002Y280249D01*
X1008256Y280442D01*
X1008514Y280629D01*
X1008778Y280809D01*
X1009045Y280983D01*
X1009317Y281150D01*
X1009592Y281311D01*
X1009872Y281465D01*
X1010155Y281612D01*
X1010442Y281752D01*
X1010732Y281885D01*
X1011025Y282010D01*
X1011321Y282129D01*
X1011620Y282240D01*
X1011922Y282344D01*
X1012226Y282440D01*
X1012533Y282529D01*
X1012841Y282610D01*
X1013152Y282684D01*
X1013464Y282750D01*
X1013777Y282809D01*
X1014093Y282859D01*
X1014409Y282902D01*
X1014726Y282937D01*
X1015044Y282965D01*
X1015362Y282984D01*
X1015681Y282996D01*
X1016000Y283000D01*
X1016319Y282996D01*
X1016638Y282984D01*
X1016956Y282965D01*
X1017274Y282937D01*
X1017591Y282902D01*
X1017907Y282859D01*
X1018223Y282809D01*
X1018536Y282750D01*
X1018848Y282684D01*
X1019159Y282610D01*
X1019467Y282529D01*
X1019774Y282440D01*
X1020078Y282344D01*
X1020380Y282240D01*
X1020679Y282129D01*
X1020975Y282010D01*
X1021268Y281885D01*
X1021558Y281752D01*
X1021845Y281612D01*
X1022128Y281465D01*
X1022408Y281311D01*
X1022683Y281150D01*
X1022955Y280983D01*
X1023222Y280809D01*
X1023486Y280629D01*
X1023744Y280442D01*
X1023998Y280249D01*
X1024247Y280049D01*
X1024491Y279844D01*
X1024730Y279632D01*
X1024964Y279415D01*
X1025192Y279192D01*
X1025415Y278964D01*
X1025632Y278730D01*
X1025844Y278491D01*
X1026049Y278247D01*
X1026249Y277998D01*
X1026442Y277744D01*
X1026629Y277486D01*
X1026809Y277222D01*
X1026983Y276955D01*
X1027150Y276683D01*
X1027311Y276408D01*
X1027465Y276128D01*
X1027612Y275845D01*
X1027752Y275558D01*
X1027885Y275268D01*
X1028010Y274975D01*
X1028129Y274679D01*
X1028240Y274380D01*
X1028344Y274078D01*
X1028440Y273774D01*
X1028529Y273467D01*
X1028610Y273159D01*
X1028684Y272848D01*
X1028750Y272536D01*
X1028809Y272223D01*
X1028859Y271907D01*
X1028902Y271591D01*
X1028937Y271274D01*
X1028965Y270956D01*
X1028984Y270638D01*
X1028996Y270319D01*
X1029000Y270000D01*
X1028996Y269681D01*
X1028984Y269362D01*
X1028965Y269044D01*
X1028937Y268726D01*
X1028902Y268409D01*
X1028859Y268093D01*
X1028809Y267777D01*
X1028750Y267464D01*
X1028684Y267152D01*
X1028610Y266841D01*
X1028529Y266533D01*
X1028440Y266226D01*
X1028344Y265922D01*
X1028240Y265620D01*
X1028129Y265321D01*
X1028010Y265025D01*
X1027885Y264732D01*
X1027752Y264442D01*
X1027612Y264155D01*
X1027465Y263872D01*
X1027311Y263592D01*
X1027150Y263317D01*
X1026983Y263045D01*
X1026809Y262778D01*
X1026629Y262514D01*
X1026442Y262256D01*
X1026249Y262002D01*
X1026049Y261753D01*
X1025844Y261509D01*
X1025632Y261270D01*
X1025415Y261036D01*
X1025192Y260808D01*
X1024964Y260585D01*
X1024730Y260368D01*
X1024491Y260156D01*
X1024247Y259951D01*
X1023998Y259751D01*
X1023744Y259558D01*
X1023486Y259371D01*
X1023222Y259191D01*
X1022955Y259017D01*
X1022683Y258850D01*
X1022408Y258689D01*
X1022128Y258535D01*
X1021845Y258388D01*
X1021558Y258248D01*
X1021268Y258115D01*
X1020975Y257990D01*
X1020679Y257871D01*
X1020380Y257760D01*
X1020078Y257656D01*
X1019774Y257560D01*
X1019467Y257471D01*
X1019159Y257390D01*
X1018848Y257316D01*
X1018536Y257250D01*
X1018223Y257191D01*
X1017907Y257141D01*
X1017591Y257098D01*
X1017274Y257063D01*
X1016956Y257035D01*
X1016638Y257016D01*
X1016319Y257004D01*
X1016000Y257000D01*
X1015681Y257004D01*
X1015362Y257016D01*
X1015044Y257035D01*
X1014726Y257063D01*
X1014409Y257098D01*
X1014093Y257141D01*
X1013777Y257191D01*
X1013464Y257250D01*
X1013152Y257316D01*
X1012841Y257390D01*
X1012533Y257471D01*
X1012226Y257560D01*
X1011922Y257656D01*
X1011620Y257760D01*
X1011321Y257871D01*
X1011025Y257990D01*
X1010732Y258115D01*
X1010442Y258248D01*
X1010155Y258388D01*
X1009872Y258535D01*
X1009592Y258689D01*
X1009317Y258850D01*
X1009045Y259017D01*
X1008778Y259191D01*
X1008514Y259371D01*
X1008256Y259558D01*
X1008002Y259751D01*
X1007753Y259951D01*
X1007509Y260156D01*
X1007270Y260368D01*
X1007036Y260585D01*
X1006808Y260808D01*
X1006585Y261036D01*
X1006368Y261270D01*
X1006156Y261509D01*
X1005951Y261753D01*
X1005751Y262002D01*
X1005558Y262256D01*
X1005371Y262514D01*
X1005191Y262778D01*
X1005017Y263045D01*
X1004850Y263317D01*
X1004689Y263592D01*
X1004535Y263872D01*
X1004388Y264155D01*
X1004248Y264442D01*
X1004115Y264732D01*
X1003990Y265025D01*
X1003871Y265321D01*
X1003760Y265620D01*
X1003656Y265922D01*
X1003560Y266226D01*
X1003471Y266533D01*
X1003390Y266841D01*
X1003316Y267152D01*
X1003250Y267464D01*
X1003191Y267777D01*
X1003141Y268093D01*
X1003098Y268409D01*
X1003063Y268726D01*
X1003035Y269044D01*
X1003016Y269362D01*
X1003004Y269681D01*
X1003000Y270000D01*
X911000Y270000D02*
X911004Y270319D01*
X911016Y270638D01*
X911035Y270956D01*
X911063Y271274D01*
X911098Y271591D01*
X911141Y271907D01*
X911191Y272223D01*
X911250Y272536D01*
X911316Y272848D01*
X911390Y273159D01*
X911471Y273467D01*
X911560Y273774D01*
X911656Y274078D01*
X911760Y274380D01*
X911871Y274679D01*
X911990Y274975D01*
X912115Y275268D01*
X912248Y275558D01*
X912388Y275845D01*
X912535Y276128D01*
X912689Y276408D01*
X912850Y276683D01*
X913017Y276955D01*
X913191Y277222D01*
X913371Y277486D01*
X913558Y277744D01*
X913751Y277998D01*
X913951Y278247D01*
X914156Y278491D01*
X914368Y278730D01*
X914585Y278964D01*
X914808Y279192D01*
X915036Y279415D01*
X915270Y279632D01*
X915509Y279844D01*
X915753Y280049D01*
X916002Y280249D01*
X916256Y280442D01*
X916514Y280629D01*
X916778Y280809D01*
X917045Y280983D01*
X917317Y281150D01*
X917592Y281311D01*
X917872Y281465D01*
X918155Y281612D01*
X918442Y281752D01*
X918732Y281885D01*
X919025Y282010D01*
X919321Y282129D01*
X919620Y282240D01*
X919922Y282344D01*
X920226Y282440D01*
X920533Y282529D01*
X920841Y282610D01*
X921152Y282684D01*
X921464Y282750D01*
X921777Y282809D01*
X922093Y282859D01*
X922409Y282902D01*
X922726Y282937D01*
X923044Y282965D01*
X923362Y282984D01*
X923681Y282996D01*
X924000Y283000D01*
X924319Y282996D01*
X924638Y282984D01*
X924956Y282965D01*
X925274Y282937D01*
X925591Y282902D01*
X925907Y282859D01*
X926223Y282809D01*
X926536Y282750D01*
X926848Y282684D01*
X927159Y282610D01*
X927467Y282529D01*
X927774Y282440D01*
X928078Y282344D01*
X928380Y282240D01*
X928679Y282129D01*
X928975Y282010D01*
X929268Y281885D01*
X929558Y281752D01*
X929845Y281612D01*
X930128Y281465D01*
X930408Y281311D01*
X930683Y281150D01*
X930955Y280983D01*
X931222Y280809D01*
X931486Y280629D01*
X931744Y280442D01*
X931998Y280249D01*
X932247Y280049D01*
X932491Y279844D01*
X932730Y279632D01*
X932964Y279415D01*
X933192Y279192D01*
X933415Y278964D01*
X933632Y278730D01*
X933844Y278491D01*
X934049Y278247D01*
X934249Y277998D01*
X934442Y277744D01*
X934629Y277486D01*
X934809Y277222D01*
X934983Y276955D01*
X935150Y276683D01*
X935311Y276408D01*
X935465Y276128D01*
X935612Y275845D01*
X935752Y275558D01*
X935885Y275268D01*
X936010Y274975D01*
X936129Y274679D01*
X936240Y274380D01*
X936344Y274078D01*
X936440Y273774D01*
X936529Y273467D01*
X936610Y273159D01*
X936684Y272848D01*
X936750Y272536D01*
X936809Y272223D01*
X936859Y271907D01*
X936902Y271591D01*
X936937Y271274D01*
X936965Y270956D01*
X936984Y270638D01*
X936996Y270319D01*
X937000Y270000D01*
X936996Y269681D01*
X936984Y269362D01*
X936965Y269044D01*
X936937Y268726D01*
X936902Y268409D01*
X936859Y268093D01*
X936809Y267777D01*
X936750Y267464D01*
X936684Y267152D01*
X936610Y266841D01*
X936529Y266533D01*
X936440Y266226D01*
X936344Y265922D01*
X936240Y265620D01*
X936129Y265321D01*
X936010Y265025D01*
X935885Y264732D01*
X935752Y264442D01*
X935612Y264155D01*
X935465Y263872D01*
X935311Y263592D01*
X935150Y263317D01*
X934983Y263045D01*
X934809Y262778D01*
X934629Y262514D01*
X934442Y262256D01*
X934249Y262002D01*
X934049Y261753D01*
X933844Y261509D01*
X933632Y261270D01*
X933415Y261036D01*
X933192Y260808D01*
X932964Y260585D01*
X932730Y260368D01*
X932491Y260156D01*
X932247Y259951D01*
X931998Y259751D01*
X931744Y259558D01*
X931486Y259371D01*
X931222Y259191D01*
X930955Y259017D01*
X930683Y258850D01*
X930408Y258689D01*
X930128Y258535D01*
X929845Y258388D01*
X929558Y258248D01*
X929268Y258115D01*
X928975Y257990D01*
X928679Y257871D01*
X928380Y257760D01*
X928078Y257656D01*
X927774Y257560D01*
X927467Y257471D01*
X927159Y257390D01*
X926848Y257316D01*
X926536Y257250D01*
X926223Y257191D01*
X925907Y257141D01*
X925591Y257098D01*
X925274Y257063D01*
X924956Y257035D01*
X924638Y257016D01*
X924319Y257004D01*
X924000Y257000D01*
X923681Y257004D01*
X923362Y257016D01*
X923044Y257035D01*
X922726Y257063D01*
X922409Y257098D01*
X922093Y257141D01*
X921777Y257191D01*
X921464Y257250D01*
X921152Y257316D01*
X920841Y257390D01*
X920533Y257471D01*
X920226Y257560D01*
X919922Y257656D01*
X919620Y257760D01*
X919321Y257871D01*
X919025Y257990D01*
X918732Y258115D01*
X918442Y258248D01*
X918155Y258388D01*
X917872Y258535D01*
X917592Y258689D01*
X917317Y258850D01*
X917045Y259017D01*
X916778Y259191D01*
X916514Y259371D01*
X916256Y259558D01*
X916002Y259751D01*
X915753Y259951D01*
X915509Y260156D01*
X915270Y260368D01*
X915036Y260585D01*
X914808Y260808D01*
X914585Y261036D01*
X914368Y261270D01*
X914156Y261509D01*
X913951Y261753D01*
X913751Y262002D01*
X913558Y262256D01*
X913371Y262514D01*
X913191Y262778D01*
X913017Y263045D01*
X912850Y263317D01*
X912689Y263592D01*
X912535Y263872D01*
X912388Y264155D01*
X912248Y264442D01*
X912115Y264732D01*
X911990Y265025D01*
X911871Y265321D01*
X911760Y265620D01*
X911656Y265922D01*
X911560Y266226D01*
X911471Y266533D01*
X911390Y266841D01*
X911316Y267152D01*
X911250Y267464D01*
X911191Y267777D01*
X911141Y268093D01*
X911098Y268409D01*
X911063Y268726D01*
X911035Y269044D01*
X911016Y269362D01*
X911004Y269681D01*
X911000Y270000D01*
D22*
X795500Y40000D03*
X784500Y40000D03*
X574500Y730000D03*
X585500Y730000D03*
X605500Y730000D03*
X594500Y730000D03*
X625500Y730000D03*
X614500Y730000D03*
X530000Y275500D03*
X530000Y264500D03*
X975500Y40000D03*
X964500Y40000D03*
X235500Y40000D03*
X224500Y40000D03*
D24*
X255000Y331952D02*
X255000Y348048D01*
X230000Y348048D02*
X230000Y331952D01*
X205000Y331952D02*
X205000Y348048D01*
D25*
X276000Y270000D03*
X184000Y270000D03*
D26*
X263000Y270000D02*
X263004Y270319D01*
X263016Y270638D01*
X263035Y270956D01*
X263063Y271274D01*
X263098Y271591D01*
X263141Y271907D01*
X263191Y272223D01*
X263250Y272536D01*
X263316Y272848D01*
X263390Y273159D01*
X263471Y273467D01*
X263560Y273774D01*
X263656Y274078D01*
X263760Y274380D01*
X263871Y274679D01*
X263990Y274975D01*
X264115Y275268D01*
X264248Y275558D01*
X264388Y275845D01*
X264535Y276128D01*
X264689Y276408D01*
X264850Y276683D01*
X265017Y276955D01*
X265191Y277222D01*
X265371Y277486D01*
X265558Y277744D01*
X265751Y277998D01*
X265951Y278247D01*
X266156Y278491D01*
X266368Y278730D01*
X266585Y278964D01*
X266808Y279192D01*
X267036Y279415D01*
X267270Y279632D01*
X267509Y279844D01*
X267753Y280049D01*
X268002Y280249D01*
X268256Y280442D01*
X268514Y280629D01*
X268778Y280809D01*
X269045Y280983D01*
X269317Y281150D01*
X269592Y281311D01*
X269872Y281465D01*
X270155Y281612D01*
X270442Y281752D01*
X270732Y281885D01*
X271025Y282010D01*
X271321Y282129D01*
X271620Y282240D01*
X271922Y282344D01*
X272226Y282440D01*
X272533Y282529D01*
X272841Y282610D01*
X273152Y282684D01*
X273464Y282750D01*
X273777Y282809D01*
X274093Y282859D01*
X274409Y282902D01*
X274726Y282937D01*
X275044Y282965D01*
X275362Y282984D01*
X275681Y282996D01*
X276000Y283000D01*
X276319Y282996D01*
X276638Y282984D01*
X276956Y282965D01*
X277274Y282937D01*
X277591Y282902D01*
X277907Y282859D01*
X278223Y282809D01*
X278536Y282750D01*
X278848Y282684D01*
X279159Y282610D01*
X279467Y282529D01*
X279774Y282440D01*
X280078Y282344D01*
X280380Y282240D01*
X280679Y282129D01*
X280975Y282010D01*
X281268Y281885D01*
X281558Y281752D01*
X281845Y281612D01*
X282128Y281465D01*
X282408Y281311D01*
X282683Y281150D01*
X282955Y280983D01*
X283222Y280809D01*
X283486Y280629D01*
X283744Y280442D01*
X283998Y280249D01*
X284247Y280049D01*
X284491Y279844D01*
X284730Y279632D01*
X284964Y279415D01*
X285192Y279192D01*
X285415Y278964D01*
X285632Y278730D01*
X285844Y278491D01*
X286049Y278247D01*
X286249Y277998D01*
X286442Y277744D01*
X286629Y277486D01*
X286809Y277222D01*
X286983Y276955D01*
X287150Y276683D01*
X287311Y276408D01*
X287465Y276128D01*
X287612Y275845D01*
X287752Y275558D01*
X287885Y275268D01*
X288010Y274975D01*
X288129Y274679D01*
X288240Y274380D01*
X288344Y274078D01*
X288440Y273774D01*
X288529Y273467D01*
X288610Y273159D01*
X288684Y272848D01*
X288750Y272536D01*
X288809Y272223D01*
X288859Y271907D01*
X288902Y271591D01*
X288937Y271274D01*
X288965Y270956D01*
X288984Y270638D01*
X288996Y270319D01*
X289000Y270000D01*
X288996Y269681D01*
X288984Y269362D01*
X288965Y269044D01*
X288937Y268726D01*
X288902Y268409D01*
X288859Y268093D01*
X288809Y267777D01*
X288750Y267464D01*
X288684Y267152D01*
X288610Y266841D01*
X288529Y266533D01*
X288440Y266226D01*
X288344Y265922D01*
X288240Y265620D01*
X288129Y265321D01*
X288010Y265025D01*
X287885Y264732D01*
X287752Y264442D01*
X287612Y264155D01*
X287465Y263872D01*
X287311Y263592D01*
X287150Y263317D01*
X286983Y263045D01*
X286809Y262778D01*
X286629Y262514D01*
X286442Y262256D01*
X286249Y262002D01*
X286049Y261753D01*
X285844Y261509D01*
X285632Y261270D01*
X285415Y261036D01*
X285192Y260808D01*
X284964Y260585D01*
X284730Y260368D01*
X284491Y260156D01*
X284247Y259951D01*
X283998Y259751D01*
X283744Y259558D01*
X283486Y259371D01*
X283222Y259191D01*
X282955Y259017D01*
X282683Y258850D01*
X282408Y258689D01*
X282128Y258535D01*
X281845Y258388D01*
X281558Y258248D01*
X281268Y258115D01*
X280975Y257990D01*
X280679Y257871D01*
X280380Y257760D01*
X280078Y257656D01*
X279774Y257560D01*
X279467Y257471D01*
X279159Y257390D01*
X278848Y257316D01*
X278536Y257250D01*
X278223Y257191D01*
X277907Y257141D01*
X277591Y257098D01*
X277274Y257063D01*
X276956Y257035D01*
X276638Y257016D01*
X276319Y257004D01*
X276000Y257000D01*
X275681Y257004D01*
X275362Y257016D01*
X275044Y257035D01*
X274726Y257063D01*
X274409Y257098D01*
X274093Y257141D01*
X273777Y257191D01*
X273464Y257250D01*
X273152Y257316D01*
X272841Y257390D01*
X272533Y257471D01*
X272226Y257560D01*
X271922Y257656D01*
X271620Y257760D01*
X271321Y257871D01*
X271025Y257990D01*
X270732Y258115D01*
X270442Y258248D01*
X270155Y258388D01*
X269872Y258535D01*
X269592Y258689D01*
X269317Y258850D01*
X269045Y259017D01*
X268778Y259191D01*
X268514Y259371D01*
X268256Y259558D01*
X268002Y259751D01*
X267753Y259951D01*
X267509Y260156D01*
X267270Y260368D01*
X267036Y260585D01*
X266808Y260808D01*
X266585Y261036D01*
X266368Y261270D01*
X266156Y261509D01*
X265951Y261753D01*
X265751Y262002D01*
X265558Y262256D01*
X265371Y262514D01*
X265191Y262778D01*
X265017Y263045D01*
X264850Y263317D01*
X264689Y263592D01*
X264535Y263872D01*
X264388Y264155D01*
X264248Y264442D01*
X264115Y264732D01*
X263990Y265025D01*
X263871Y265321D01*
X263760Y265620D01*
X263656Y265922D01*
X263560Y266226D01*
X263471Y266533D01*
X263390Y266841D01*
X263316Y267152D01*
X263250Y267464D01*
X263191Y267777D01*
X263141Y268093D01*
X263098Y268409D01*
X263063Y268726D01*
X263035Y269044D01*
X263016Y269362D01*
X263004Y269681D01*
X263000Y270000D01*
X171000Y270000D02*
X171004Y270319D01*
X171016Y270638D01*
X171035Y270956D01*
X171063Y271274D01*
X171098Y271591D01*
X171141Y271907D01*
X171191Y272223D01*
X171250Y272536D01*
X171316Y272848D01*
X171390Y273159D01*
X171471Y273467D01*
X171560Y273774D01*
X171656Y274078D01*
X171760Y274380D01*
X171871Y274679D01*
X171990Y274975D01*
X172115Y275268D01*
X172248Y275558D01*
X172388Y275845D01*
X172535Y276128D01*
X172689Y276408D01*
X172850Y276683D01*
X173017Y276955D01*
X173191Y277222D01*
X173371Y277486D01*
X173558Y277744D01*
X173751Y277998D01*
X173951Y278247D01*
X174156Y278491D01*
X174368Y278730D01*
X174585Y278964D01*
X174808Y279192D01*
X175036Y279415D01*
X175270Y279632D01*
X175509Y279844D01*
X175753Y280049D01*
X176002Y280249D01*
X176256Y280442D01*
X176514Y280629D01*
X176778Y280809D01*
X177045Y280983D01*
X177317Y281150D01*
X177592Y281311D01*
X177872Y281465D01*
X178155Y281612D01*
X178442Y281752D01*
X178732Y281885D01*
X179025Y282010D01*
X179321Y282129D01*
X179620Y282240D01*
X179922Y282344D01*
X180226Y282440D01*
X180533Y282529D01*
X180841Y282610D01*
X181152Y282684D01*
X181464Y282750D01*
X181777Y282809D01*
X182093Y282859D01*
X182409Y282902D01*
X182726Y282937D01*
X183044Y282965D01*
X183362Y282984D01*
X183681Y282996D01*
X184000Y283000D01*
X184319Y282996D01*
X184638Y282984D01*
X184956Y282965D01*
X185274Y282937D01*
X185591Y282902D01*
X185907Y282859D01*
X186223Y282809D01*
X186536Y282750D01*
X186848Y282684D01*
X187159Y282610D01*
X187467Y282529D01*
X187774Y282440D01*
X188078Y282344D01*
X188380Y282240D01*
X188679Y282129D01*
X188975Y282010D01*
X189268Y281885D01*
X189558Y281752D01*
X189845Y281612D01*
X190128Y281465D01*
X190408Y281311D01*
X190683Y281150D01*
X190955Y280983D01*
X191222Y280809D01*
X191486Y280629D01*
X191744Y280442D01*
X191998Y280249D01*
X192247Y280049D01*
X192491Y279844D01*
X192730Y279632D01*
X192964Y279415D01*
X193192Y279192D01*
X193415Y278964D01*
X193632Y278730D01*
X193844Y278491D01*
X194049Y278247D01*
X194249Y277998D01*
X194442Y277744D01*
X194629Y277486D01*
X194809Y277222D01*
X194983Y276955D01*
X195150Y276683D01*
X195311Y276408D01*
X195465Y276128D01*
X195612Y275845D01*
X195752Y275558D01*
X195885Y275268D01*
X196010Y274975D01*
X196129Y274679D01*
X196240Y274380D01*
X196344Y274078D01*
X196440Y273774D01*
X196529Y273467D01*
X196610Y273159D01*
X196684Y272848D01*
X196750Y272536D01*
X196809Y272223D01*
X196859Y271907D01*
X196902Y271591D01*
X196937Y271274D01*
X196965Y270956D01*
X196984Y270638D01*
X196996Y270319D01*
X197000Y270000D01*
X196996Y269681D01*
X196984Y269362D01*
X196965Y269044D01*
X196937Y268726D01*
X196902Y268409D01*
X196859Y268093D01*
X196809Y267777D01*
X196750Y267464D01*
X196684Y267152D01*
X196610Y266841D01*
X196529Y266533D01*
X196440Y266226D01*
X196344Y265922D01*
X196240Y265620D01*
X196129Y265321D01*
X196010Y265025D01*
X195885Y264732D01*
X195752Y264442D01*
X195612Y264155D01*
X195465Y263872D01*
X195311Y263592D01*
X195150Y263317D01*
X194983Y263045D01*
X194809Y262778D01*
X194629Y262514D01*
X194442Y262256D01*
X194249Y262002D01*
X194049Y261753D01*
X193844Y261509D01*
X193632Y261270D01*
X193415Y261036D01*
X193192Y260808D01*
X192964Y260585D01*
X192730Y260368D01*
X192491Y260156D01*
X192247Y259951D01*
X191998Y259751D01*
X191744Y259558D01*
X191486Y259371D01*
X191222Y259191D01*
X190955Y259017D01*
X190683Y258850D01*
X190408Y258689D01*
X190128Y258535D01*
X189845Y258388D01*
X189558Y258248D01*
X189268Y258115D01*
X188975Y257990D01*
X188679Y257871D01*
X188380Y257760D01*
X188078Y257656D01*
X187774Y257560D01*
X187467Y257471D01*
X187159Y257390D01*
X186848Y257316D01*
X186536Y257250D01*
X186223Y257191D01*
X185907Y257141D01*
X185591Y257098D01*
X185274Y257063D01*
X184956Y257035D01*
X184638Y257016D01*
X184319Y257004D01*
X184000Y257000D01*
X183681Y257004D01*
X183362Y257016D01*
X183044Y257035D01*
X182726Y257063D01*
X182409Y257098D01*
X182093Y257141D01*
X181777Y257191D01*
X181464Y257250D01*
X181152Y257316D01*
X180841Y257390D01*
X180533Y257471D01*
X180226Y257560D01*
X179922Y257656D01*
X179620Y257760D01*
X179321Y257871D01*
X179025Y257990D01*
X178732Y258115D01*
X178442Y258248D01*
X178155Y258388D01*
X177872Y258535D01*
X177592Y258689D01*
X177317Y258850D01*
X177045Y259017D01*
X176778Y259191D01*
X176514Y259371D01*
X176256Y259558D01*
X176002Y259751D01*
X175753Y259951D01*
X175509Y260156D01*
X175270Y260368D01*
X175036Y260585D01*
X174808Y260808D01*
X174585Y261036D01*
X174368Y261270D01*
X174156Y261509D01*
X173951Y261753D01*
X173751Y262002D01*
X173558Y262256D01*
X173371Y262514D01*
X173191Y262778D01*
X173017Y263045D01*
X172850Y263317D01*
X172689Y263592D01*
X172535Y263872D01*
X172388Y264155D01*
X172248Y264442D01*
X172115Y264732D01*
X171990Y265025D01*
X171871Y265321D01*
X171760Y265620D01*
X171656Y265922D01*
X171560Y266226D01*
X171471Y266533D01*
X171390Y266841D01*
X171316Y267152D01*
X171250Y267464D01*
X171191Y267777D01*
X171141Y268093D01*
X171098Y268409D01*
X171063Y268726D01*
X171035Y269044D01*
X171016Y269362D01*
X171004Y269681D01*
X171000Y270000D01*
D24*
X435000Y331952D02*
X435000Y348048D01*
X410000Y348048D02*
X410000Y331952D01*
X385000Y331952D02*
X385000Y348048D01*
D25*
X456000Y270000D03*
X364000Y270000D03*
D26*
X443000Y270000D02*
X443004Y270319D01*
X443016Y270638D01*
X443035Y270956D01*
X443063Y271274D01*
X443098Y271591D01*
X443141Y271907D01*
X443191Y272223D01*
X443250Y272536D01*
X443316Y272848D01*
X443390Y273159D01*
X443471Y273467D01*
X443560Y273774D01*
X443656Y274078D01*
X443760Y274380D01*
X443871Y274679D01*
X443990Y274975D01*
X444115Y275268D01*
X444248Y275558D01*
X444388Y275845D01*
X444535Y276128D01*
X444689Y276408D01*
X444850Y276683D01*
X445017Y276955D01*
X445191Y277222D01*
X445371Y277486D01*
X445558Y277744D01*
X445751Y277998D01*
X445951Y278247D01*
X446156Y278491D01*
X446368Y278730D01*
X446585Y278964D01*
X446808Y279192D01*
X447036Y279415D01*
X447270Y279632D01*
X447509Y279844D01*
X447753Y280049D01*
X448002Y280249D01*
X448256Y280442D01*
X448514Y280629D01*
X448778Y280809D01*
X449045Y280983D01*
X449317Y281150D01*
X449592Y281311D01*
X449872Y281465D01*
X450155Y281612D01*
X450442Y281752D01*
X450732Y281885D01*
X451025Y282010D01*
X451321Y282129D01*
X451620Y282240D01*
X451922Y282344D01*
X452226Y282440D01*
X452533Y282529D01*
X452841Y282610D01*
X453152Y282684D01*
X453464Y282750D01*
X453777Y282809D01*
X454093Y282859D01*
X454409Y282902D01*
X454726Y282937D01*
X455044Y282965D01*
X455362Y282984D01*
X455681Y282996D01*
X456000Y283000D01*
X456319Y282996D01*
X456638Y282984D01*
X456956Y282965D01*
X457274Y282937D01*
X457591Y282902D01*
X457907Y282859D01*
X458223Y282809D01*
X458536Y282750D01*
X458848Y282684D01*
X459159Y282610D01*
X459467Y282529D01*
X459774Y282440D01*
X460078Y282344D01*
X460380Y282240D01*
X460679Y282129D01*
X460975Y282010D01*
X461268Y281885D01*
X461558Y281752D01*
X461845Y281612D01*
X462128Y281465D01*
X462408Y281311D01*
X462683Y281150D01*
X462955Y280983D01*
X463222Y280809D01*
X463486Y280629D01*
X463744Y280442D01*
X463998Y280249D01*
X464247Y280049D01*
X464491Y279844D01*
X464730Y279632D01*
X464964Y279415D01*
X465192Y279192D01*
X465415Y278964D01*
X465632Y278730D01*
X465844Y278491D01*
X466049Y278247D01*
X466249Y277998D01*
X466442Y277744D01*
X466629Y277486D01*
X466809Y277222D01*
X466983Y276955D01*
X467150Y276683D01*
X467311Y276408D01*
X467465Y276128D01*
X467612Y275845D01*
X467752Y275558D01*
X467885Y275268D01*
X468010Y274975D01*
X468129Y274679D01*
X468240Y274380D01*
X468344Y274078D01*
X468440Y273774D01*
X468529Y273467D01*
X468610Y273159D01*
X468684Y272848D01*
X468750Y272536D01*
X468809Y272223D01*
X468859Y271907D01*
X468902Y271591D01*
X468937Y271274D01*
X468965Y270956D01*
X468984Y270638D01*
X468996Y270319D01*
X469000Y270000D01*
X468996Y269681D01*
X468984Y269362D01*
X468965Y269044D01*
X468937Y268726D01*
X468902Y268409D01*
X468859Y268093D01*
X468809Y267777D01*
X468750Y267464D01*
X468684Y267152D01*
X468610Y266841D01*
X468529Y266533D01*
X468440Y266226D01*
X468344Y265922D01*
X468240Y265620D01*
X468129Y265321D01*
X468010Y265025D01*
X467885Y264732D01*
X467752Y264442D01*
X467612Y264155D01*
X467465Y263872D01*
X467311Y263592D01*
X467150Y263317D01*
X466983Y263045D01*
X466809Y262778D01*
X466629Y262514D01*
X466442Y262256D01*
X466249Y262002D01*
X466049Y261753D01*
X465844Y261509D01*
X465632Y261270D01*
X465415Y261036D01*
X465192Y260808D01*
X464964Y260585D01*
X464730Y260368D01*
X464491Y260156D01*
X464247Y259951D01*
X463998Y259751D01*
X463744Y259558D01*
X463486Y259371D01*
X463222Y259191D01*
X462955Y259017D01*
X462683Y258850D01*
X462408Y258689D01*
X462128Y258535D01*
X461845Y258388D01*
X461558Y258248D01*
X461268Y258115D01*
X460975Y257990D01*
X460679Y257871D01*
X460380Y257760D01*
X460078Y257656D01*
X459774Y257560D01*
X459467Y257471D01*
X459159Y257390D01*
X458848Y257316D01*
X458536Y257250D01*
X458223Y257191D01*
X457907Y257141D01*
X457591Y257098D01*
X457274Y257063D01*
X456956Y257035D01*
X456638Y257016D01*
X456319Y257004D01*
X456000Y257000D01*
X455681Y257004D01*
X455362Y257016D01*
X455044Y257035D01*
X454726Y257063D01*
X454409Y257098D01*
X454093Y257141D01*
X453777Y257191D01*
X453464Y257250D01*
X453152Y257316D01*
X452841Y257390D01*
X452533Y257471D01*
X452226Y257560D01*
X451922Y257656D01*
X451620Y257760D01*
X451321Y257871D01*
X451025Y257990D01*
X450732Y258115D01*
X450442Y258248D01*
X450155Y258388D01*
X449872Y258535D01*
X449592Y258689D01*
X449317Y258850D01*
X449045Y259017D01*
X448778Y259191D01*
X448514Y259371D01*
X448256Y259558D01*
X448002Y259751D01*
X447753Y259951D01*
X447509Y260156D01*
X447270Y260368D01*
X447036Y260585D01*
X446808Y260808D01*
X446585Y261036D01*
X446368Y261270D01*
X446156Y261509D01*
X445951Y261753D01*
X445751Y262002D01*
X445558Y262256D01*
X445371Y262514D01*
X445191Y262778D01*
X445017Y263045D01*
X444850Y263317D01*
X444689Y263592D01*
X444535Y263872D01*
X444388Y264155D01*
X444248Y264442D01*
X444115Y264732D01*
X443990Y265025D01*
X443871Y265321D01*
X443760Y265620D01*
X443656Y265922D01*
X443560Y266226D01*
X443471Y266533D01*
X443390Y266841D01*
X443316Y267152D01*
X443250Y267464D01*
X443191Y267777D01*
X443141Y268093D01*
X443098Y268409D01*
X443063Y268726D01*
X443035Y269044D01*
X443016Y269362D01*
X443004Y269681D01*
X443000Y270000D01*
X351000Y270000D02*
X351004Y270319D01*
X351016Y270638D01*
X351035Y270956D01*
X351063Y271274D01*
X351098Y271591D01*
X351141Y271907D01*
X351191Y272223D01*
X351250Y272536D01*
X351316Y272848D01*
X351390Y273159D01*
X351471Y273467D01*
X351560Y273774D01*
X351656Y274078D01*
X351760Y274380D01*
X351871Y274679D01*
X351990Y274975D01*
X352115Y275268D01*
X352248Y275558D01*
X352388Y275845D01*
X352535Y276128D01*
X352689Y276408D01*
X352850Y276683D01*
X353017Y276955D01*
X353191Y277222D01*
X353371Y277486D01*
X353558Y277744D01*
X353751Y277998D01*
X353951Y278247D01*
X354156Y278491D01*
X354368Y278730D01*
X354585Y278964D01*
X354808Y279192D01*
X355036Y279415D01*
X355270Y279632D01*
X355509Y279844D01*
X355753Y280049D01*
X356002Y280249D01*
X356256Y280442D01*
X356514Y280629D01*
X356778Y280809D01*
X357045Y280983D01*
X357317Y281150D01*
X357592Y281311D01*
X357872Y281465D01*
X358155Y281612D01*
X358442Y281752D01*
X358732Y281885D01*
X359025Y282010D01*
X359321Y282129D01*
X359620Y282240D01*
X359922Y282344D01*
X360226Y282440D01*
X360533Y282529D01*
X360841Y282610D01*
X361152Y282684D01*
X361464Y282750D01*
X361777Y282809D01*
X362093Y282859D01*
X362409Y282902D01*
X362726Y282937D01*
X363044Y282965D01*
X363362Y282984D01*
X363681Y282996D01*
X364000Y283000D01*
X364319Y282996D01*
X364638Y282984D01*
X364956Y282965D01*
X365274Y282937D01*
X365591Y282902D01*
X365907Y282859D01*
X366223Y282809D01*
X366536Y282750D01*
X366848Y282684D01*
X367159Y282610D01*
X367467Y282529D01*
X367774Y282440D01*
X368078Y282344D01*
X368380Y282240D01*
X368679Y282129D01*
X368975Y282010D01*
X369268Y281885D01*
X369558Y281752D01*
X369845Y281612D01*
X370128Y281465D01*
X370408Y281311D01*
X370683Y281150D01*
X370955Y280983D01*
X371222Y280809D01*
X371486Y280629D01*
X371744Y280442D01*
X371998Y280249D01*
X372247Y280049D01*
X372491Y279844D01*
X372730Y279632D01*
X372964Y279415D01*
X373192Y279192D01*
X373415Y278964D01*
X373632Y278730D01*
X373844Y278491D01*
X374049Y278247D01*
X374249Y277998D01*
X374442Y277744D01*
X374629Y277486D01*
X374809Y277222D01*
X374983Y276955D01*
X375150Y276683D01*
X375311Y276408D01*
X375465Y276128D01*
X375612Y275845D01*
X375752Y275558D01*
X375885Y275268D01*
X376010Y274975D01*
X376129Y274679D01*
X376240Y274380D01*
X376344Y274078D01*
X376440Y273774D01*
X376529Y273467D01*
X376610Y273159D01*
X376684Y272848D01*
X376750Y272536D01*
X376809Y272223D01*
X376859Y271907D01*
X376902Y271591D01*
X376937Y271274D01*
X376965Y270956D01*
X376984Y270638D01*
X376996Y270319D01*
X377000Y270000D01*
X376996Y269681D01*
X376984Y269362D01*
X376965Y269044D01*
X376937Y268726D01*
X376902Y268409D01*
X376859Y268093D01*
X376809Y267777D01*
X376750Y267464D01*
X376684Y267152D01*
X376610Y266841D01*
X376529Y266533D01*
X376440Y266226D01*
X376344Y265922D01*
X376240Y265620D01*
X376129Y265321D01*
X376010Y265025D01*
X375885Y264732D01*
X375752Y264442D01*
X375612Y264155D01*
X375465Y263872D01*
X375311Y263592D01*
X375150Y263317D01*
X374983Y263045D01*
X374809Y262778D01*
X374629Y262514D01*
X374442Y262256D01*
X374249Y262002D01*
X374049Y261753D01*
X373844Y261509D01*
X373632Y261270D01*
X373415Y261036D01*
X373192Y260808D01*
X372964Y260585D01*
X372730Y260368D01*
X372491Y260156D01*
X372247Y259951D01*
X371998Y259751D01*
X371744Y259558D01*
X371486Y259371D01*
X371222Y259191D01*
X370955Y259017D01*
X370683Y258850D01*
X370408Y258689D01*
X370128Y258535D01*
X369845Y258388D01*
X369558Y258248D01*
X369268Y258115D01*
X368975Y257990D01*
X368679Y257871D01*
X368380Y257760D01*
X368078Y257656D01*
X367774Y257560D01*
X367467Y257471D01*
X367159Y257390D01*
X366848Y257316D01*
X366536Y257250D01*
X366223Y257191D01*
X365907Y257141D01*
X365591Y257098D01*
X365274Y257063D01*
X364956Y257035D01*
X364638Y257016D01*
X364319Y257004D01*
X364000Y257000D01*
X363681Y257004D01*
X363362Y257016D01*
X363044Y257035D01*
X362726Y257063D01*
X362409Y257098D01*
X362093Y257141D01*
X361777Y257191D01*
X361464Y257250D01*
X361152Y257316D01*
X360841Y257390D01*
X360533Y257471D01*
X360226Y257560D01*
X359922Y257656D01*
X359620Y257760D01*
X359321Y257871D01*
X359025Y257990D01*
X358732Y258115D01*
X358442Y258248D01*
X358155Y258388D01*
X357872Y258535D01*
X357592Y258689D01*
X357317Y258850D01*
X357045Y259017D01*
X356778Y259191D01*
X356514Y259371D01*
X356256Y259558D01*
X356002Y259751D01*
X355753Y259951D01*
X355509Y260156D01*
X355270Y260368D01*
X355036Y260585D01*
X354808Y260808D01*
X354585Y261036D01*
X354368Y261270D01*
X354156Y261509D01*
X353951Y261753D01*
X353751Y262002D01*
X353558Y262256D01*
X353371Y262514D01*
X353191Y262778D01*
X353017Y263045D01*
X352850Y263317D01*
X352689Y263592D01*
X352535Y263872D01*
X352388Y264155D01*
X352248Y264442D01*
X352115Y264732D01*
X351990Y265025D01*
X351871Y265321D01*
X351760Y265620D01*
X351656Y265922D01*
X351560Y266226D01*
X351471Y266533D01*
X351390Y266841D01*
X351316Y267152D01*
X351250Y267464D01*
X351191Y267777D01*
X351141Y268093D01*
X351098Y268409D01*
X351063Y268726D01*
X351035Y269044D01*
X351016Y269362D01*
X351004Y269681D01*
X351000Y270000D01*
D27*
X625000Y332500D03*
X625400Y207500D03*
X575000Y332500D03*
X575000Y207500D03*
D28*
X555000Y270000D03*
X645000Y270000D03*
D27*
X435000Y172500D03*
X435400Y47500D03*
X385000Y172500D03*
X385000Y47500D03*
D28*
X365000Y110000D03*
X455000Y110000D03*
D27*
X995000Y172500D03*
X995400Y47500D03*
X945000Y172500D03*
X945000Y47500D03*
D28*
X925000Y110000D03*
X1015000Y110000D03*
D27*
X255000Y172500D03*
X255400Y47500D03*
X205000Y172500D03*
X205000Y47500D03*
D28*
X185000Y110000D03*
X275000Y110000D03*
D27*
X815000Y172500D03*
X815400Y47500D03*
X765000Y172500D03*
X765000Y47500D03*
D28*
X745000Y110000D03*
X835000Y110000D03*
D29*
X50000Y775000D03*
D30*
X591393Y748667D02*
X591393Y743333D01*
X589107Y743333D01*
X589107Y748667D01*
X591393Y748667D01*
X591393Y745987D02*
X589107Y745987D01*
X589107Y748641D02*
X591393Y748641D01*
X597893Y748667D02*
X597893Y743333D01*
X595607Y743333D01*
X595607Y748667D01*
X597893Y748667D01*
X597893Y745987D02*
X595607Y745987D01*
X595607Y748641D02*
X597893Y748641D01*
X604393Y748667D02*
X604393Y743333D01*
X602107Y743333D01*
X602107Y748667D01*
X604393Y748667D01*
X604393Y745987D02*
X602107Y745987D01*
X602107Y748641D02*
X604393Y748641D01*
X610893Y748667D02*
X610893Y743333D01*
X608607Y743333D01*
X608607Y748667D01*
X610893Y748667D01*
X610893Y745987D02*
X608607Y745987D01*
X608607Y748641D02*
X610893Y748641D01*
X608607Y771333D02*
X608607Y776667D01*
X610893Y776667D01*
X610893Y771333D01*
X608607Y771333D01*
X608607Y773987D02*
X610893Y773987D01*
X610893Y776641D02*
X608607Y776641D01*
X602107Y776667D02*
X602107Y771333D01*
X602107Y776667D02*
X604393Y776667D01*
X604393Y771333D01*
X602107Y771333D01*
X602107Y773987D02*
X604393Y773987D01*
X604393Y776641D02*
X602107Y776641D01*
X595607Y776667D02*
X595607Y771333D01*
X595607Y776667D02*
X597893Y776667D01*
X597893Y771333D01*
X595607Y771333D01*
X595607Y773987D02*
X597893Y773987D01*
X597893Y776641D02*
X595607Y776641D01*
X589107Y776667D02*
X589107Y771333D01*
X589107Y776667D02*
X591393Y776667D01*
X591393Y771333D01*
X589107Y771333D01*
X589107Y773987D02*
X591393Y773987D01*
X591393Y776641D02*
X589107Y776641D01*
D31*
X600000Y760000D03*
D32*
X522500Y560000D03*
X522500Y555000D03*
X522500Y550000D03*
X522500Y545000D03*
X522500Y540000D03*
X522500Y535000D03*
X522500Y530000D03*
X522500Y525000D03*
X522500Y520000D03*
X522500Y515000D03*
X522500Y510000D03*
X522500Y505000D03*
X522500Y500000D03*
X522500Y495000D03*
X522500Y490000D03*
X522500Y485000D03*
X522500Y480000D03*
X522500Y475000D03*
X522500Y470000D03*
X522500Y465000D03*
X522500Y460000D03*
X522500Y455000D03*
X522500Y450000D03*
X522500Y445000D03*
X522500Y440000D03*
D33*
X540000Y422500D03*
X545000Y422500D03*
X550000Y422500D03*
X555000Y422500D03*
X560000Y422500D03*
X565000Y422500D03*
X570000Y422500D03*
X575000Y422500D03*
X580000Y422500D03*
X585000Y422500D03*
X590000Y422500D03*
X595000Y422500D03*
X600000Y422500D03*
X605000Y422500D03*
X610000Y422500D03*
X615000Y422500D03*
X620000Y422500D03*
X625000Y422500D03*
X630000Y422500D03*
X635000Y422500D03*
X640000Y422500D03*
X645000Y422500D03*
X650000Y422500D03*
X655000Y422500D03*
X660000Y422500D03*
D32*
X677500Y440000D03*
X677500Y445000D03*
X677500Y450000D03*
X677500Y455000D03*
X677500Y460000D03*
X677500Y465000D03*
X677500Y470000D03*
X677500Y475000D03*
X677500Y480000D03*
X677500Y485000D03*
X677500Y490000D03*
X677500Y495000D03*
X677500Y500000D03*
X677500Y505000D03*
X677500Y510000D03*
X677500Y515000D03*
X677500Y520000D03*
X677500Y525000D03*
X677500Y530000D03*
X677500Y535000D03*
X677500Y540000D03*
X677500Y545000D03*
X677500Y550000D03*
X677500Y555000D03*
X677500Y560000D03*
D33*
X660000Y577500D03*
X655000Y577500D03*
X650000Y577500D03*
X645000Y577500D03*
X640000Y577500D03*
X635000Y577500D03*
X630000Y577500D03*
X625000Y577500D03*
X620000Y577500D03*
X615000Y577500D03*
X610000Y577500D03*
X605000Y577500D03*
X600000Y577500D03*
X595000Y577500D03*
X590000Y577500D03*
X585000Y577500D03*
X580000Y577500D03*
X575000Y577500D03*
X570000Y577500D03*
X565000Y577500D03*
X560000Y577500D03*
X555000Y577500D03*
X550000Y577500D03*
X545000Y577500D03*
X540000Y577500D03*
D34*
X351000Y732500D03*
X351000Y727500D03*
X351000Y722500D03*
X351000Y717500D03*
X351000Y712500D03*
X351000Y707500D03*
D35*
X357500Y701000D03*
X362500Y701000D03*
X367500Y701000D03*
X372500Y701000D03*
X377500Y701000D03*
X382500Y701000D03*
D34*
X389000Y707500D03*
X389000Y712500D03*
X389000Y717500D03*
X389000Y722500D03*
X389000Y727500D03*
X389000Y732500D03*
D35*
X382500Y739000D03*
X377500Y739000D03*
X372500Y739000D03*
X367500Y739000D03*
X362500Y739000D03*
X357500Y739000D03*
D36*
X370000Y720000D03*
D37*
X290250Y911000D03*
X296750Y911000D03*
X303250Y911000D03*
X309750Y911000D03*
X309750Y969000D03*
X303250Y969000D03*
X296750Y969000D03*
X290250Y969000D03*
D38*
X701000Y380000D03*
X679000Y370500D03*
X679000Y389500D03*
X81000Y850000D03*
X59000Y840500D03*
X59000Y859500D03*
D39*
X496000Y491000D03*
X496000Y503000D03*
X496000Y515000D03*
D40*
X458400Y437500D03*
X458400Y432500D03*
X458400Y427500D03*
X458400Y422500D03*
D41*
X465000Y420900D03*
X470000Y420900D03*
X475000Y420900D03*
D40*
X481600Y422500D03*
X481600Y427500D03*
X481600Y432500D03*
X481600Y437500D03*
D41*
X475000Y439100D03*
X470000Y439100D03*
X465000Y439100D03*
D17*
X492000Y433560D03*
X500000Y433560D03*
D13*
X479540Y400050D03*
X479540Y408050D03*
D16*
X491490Y392550D03*
X491490Y407550D03*
D13*
X470540Y400050D03*
X470540Y408050D03*
D15*
X918592Y759942D02*
X918592Y772058D01*
X945208Y772058D01*
X945208Y759942D01*
X918592Y759942D01*
X918592Y763188D02*
X945208Y763188D01*
X945208Y766434D02*
X918592Y766434D01*
X918592Y769680D02*
X945208Y769680D01*
X918592Y740058D02*
X918592Y727942D01*
X918592Y740058D02*
X945208Y740058D01*
X945208Y727942D01*
X918592Y727942D01*
X918592Y731188D02*
X945208Y731188D01*
X945208Y734434D02*
X918592Y734434D01*
X918592Y737680D02*
X945208Y737680D01*
X958592Y759942D02*
X958592Y772058D01*
X985208Y772058D01*
X985208Y759942D01*
X958592Y759942D01*
X958592Y763188D02*
X985208Y763188D01*
X985208Y766434D02*
X958592Y766434D01*
X958592Y769680D02*
X985208Y769680D01*
X958592Y740058D02*
X958592Y727942D01*
X958592Y740058D02*
X985208Y740058D01*
X985208Y727942D01*
X958592Y727942D01*
X958592Y731188D02*
X985208Y731188D01*
X985208Y734434D02*
X958592Y734434D01*
X958592Y737680D02*
X985208Y737680D01*
D12*
X884805Y762155D02*
X884805Y768845D01*
X898995Y768845D01*
X898995Y762155D01*
X884805Y762155D01*
X884805Y766756D02*
X898995Y766756D01*
X884805Y737845D02*
X884805Y731155D01*
X884805Y737845D02*
X898995Y737845D01*
X898995Y731155D01*
X884805Y731155D01*
X884805Y735756D02*
X898995Y735756D01*
D13*
X868050Y754000D03*
X868050Y746000D03*
X825550Y666000D03*
X825550Y674000D03*
D22*
X680000Y594500D03*
X680000Y605500D03*
X692500Y594500D03*
X692500Y605500D03*
X705000Y594500D03*
X705000Y605500D03*
D42*
X854741Y702496D03*
X854741Y707497D03*
X854741Y712498D03*
X854741Y717499D03*
X854741Y722501D03*
X854741Y727502D03*
X854741Y732503D03*
X854741Y737504D03*
D43*
X847504Y744741D03*
X842503Y744741D03*
X837502Y744741D03*
X832501Y744741D03*
X827499Y744741D03*
X822498Y744741D03*
X817497Y744741D03*
X812496Y744741D03*
D42*
X805259Y737504D03*
X805259Y732503D03*
X805259Y727502D03*
X805259Y722501D03*
X805259Y717499D03*
X805259Y712498D03*
X805259Y707497D03*
X805259Y702496D03*
D43*
X812496Y695259D03*
X817497Y695259D03*
X822498Y695259D03*
X827499Y695259D03*
X832501Y695259D03*
X837502Y695259D03*
X842503Y695259D03*
X847504Y695259D03*
D44*
X845589Y735589D02*
X814411Y735589D01*
X845589Y735589D02*
X845589Y704411D01*
X814411Y704411D01*
X814411Y735589D01*
X814411Y708072D02*
X845589Y708072D01*
X845589Y711733D02*
X814411Y711733D01*
X814411Y715394D02*
X845589Y715394D01*
X845589Y719055D02*
X814411Y719055D01*
X814411Y722716D02*
X845589Y722716D01*
X845589Y726377D02*
X814411Y726377D01*
X814411Y730038D02*
X845589Y730038D01*
X845589Y733699D02*
X814411Y733699D01*
D22*
X717500Y594500D03*
X717500Y605500D03*
X742500Y594500D03*
X742500Y605500D03*
X730000Y594500D03*
X730000Y605500D03*
D15*
X640058Y686692D02*
X627942Y686692D01*
X627942Y713308D01*
X640058Y713308D01*
X640058Y686692D01*
X640058Y689938D02*
X627942Y689938D01*
X627942Y693184D02*
X640058Y693184D01*
X640058Y696430D02*
X627942Y696430D01*
X627942Y699676D02*
X640058Y699676D01*
X640058Y702922D02*
X627942Y702922D01*
X627942Y706168D02*
X640058Y706168D01*
X640058Y709414D02*
X627942Y709414D01*
X627942Y712660D02*
X640058Y712660D01*
X659942Y686692D02*
X672058Y686692D01*
X659942Y686692D02*
X659942Y713308D01*
X672058Y713308D01*
X672058Y686692D01*
X672058Y689938D02*
X659942Y689938D01*
X659942Y693184D02*
X672058Y693184D01*
X672058Y696430D02*
X659942Y696430D01*
X659942Y699676D02*
X672058Y699676D01*
X672058Y702922D02*
X659942Y702922D01*
X659942Y706168D02*
X672058Y706168D01*
X672058Y709414D02*
X659942Y709414D01*
X659942Y712660D02*
X672058Y712660D01*
D12*
X581905Y671845D02*
X581905Y665155D01*
X581905Y671845D02*
X596095Y671845D01*
X596095Y665155D01*
X581905Y665155D01*
X581905Y669756D02*
X596095Y669756D01*
X581905Y640845D02*
X581905Y634155D01*
X581905Y640845D02*
X596095Y640845D01*
X596095Y634155D01*
X581905Y634155D01*
X581905Y638756D02*
X596095Y638756D01*
D15*
X246692Y759942D02*
X246692Y772058D01*
X273308Y772058D01*
X273308Y759942D01*
X246692Y759942D01*
X246692Y763188D02*
X273308Y763188D01*
X273308Y766434D02*
X246692Y766434D01*
X246692Y769680D02*
X273308Y769680D01*
X246692Y740058D02*
X246692Y727942D01*
X246692Y740058D02*
X273308Y740058D01*
X273308Y727942D01*
X246692Y727942D01*
X246692Y731188D02*
X273308Y731188D01*
X273308Y734434D02*
X246692Y734434D01*
X246692Y737680D02*
X273308Y737680D01*
X416692Y759942D02*
X416692Y772058D01*
X443308Y772058D01*
X443308Y759942D01*
X416692Y759942D01*
X416692Y763188D02*
X443308Y763188D01*
X443308Y766434D02*
X416692Y766434D01*
X416692Y769680D02*
X443308Y769680D01*
X416692Y740058D02*
X416692Y727942D01*
X416692Y740058D02*
X443308Y740058D01*
X443308Y727942D01*
X416692Y727942D01*
X416692Y731188D02*
X443308Y731188D01*
X443308Y734434D02*
X416692Y734434D01*
X416692Y737680D02*
X443308Y737680D01*
X756692Y759942D02*
X756692Y772058D01*
X783308Y772058D01*
X783308Y759942D01*
X756692Y759942D01*
X756692Y763188D02*
X783308Y763188D01*
X783308Y766434D02*
X756692Y766434D01*
X756692Y769680D02*
X783308Y769680D01*
X756692Y740058D02*
X756692Y727942D01*
X756692Y740058D02*
X783308Y740058D01*
X783308Y727942D01*
X756692Y727942D01*
X756692Y731188D02*
X783308Y731188D01*
X783308Y734434D02*
X756692Y734434D01*
X756692Y737680D02*
X783308Y737680D01*
X716692Y759942D02*
X716692Y772058D01*
X743308Y772058D01*
X743308Y759942D01*
X716692Y759942D01*
X716692Y763188D02*
X743308Y763188D01*
X743308Y766434D02*
X716692Y766434D01*
X716692Y769680D02*
X743308Y769680D01*
X716692Y740058D02*
X716692Y727942D01*
X716692Y740058D02*
X743308Y740058D01*
X743308Y727942D01*
X716692Y727942D01*
X716692Y731188D02*
X743308Y731188D01*
X743308Y734434D02*
X716692Y734434D01*
X716692Y737680D02*
X743308Y737680D01*
D45*
X1035000Y930000D03*
D27*
X985000Y930000D03*
X935000Y930000D03*
X885000Y930000D03*
D46*
X880000Y410000D03*
D47*
X880000Y430000D03*
X880000Y450000D03*
X880000Y470000D03*
X880000Y490000D03*
X880000Y510000D03*
X880000Y530000D03*
X880000Y550000D03*
X880000Y570000D03*
X880000Y590000D03*
D46*
X70000Y590000D03*
D48*
X70000Y570000D03*
X70000Y550000D03*
X70000Y530000D03*
X70000Y510000D03*
X70000Y490000D03*
X70000Y470000D03*
X70000Y450000D03*
X70000Y430000D03*
X70000Y410000D03*
D46*
X320000Y590000D03*
D48*
X320000Y570000D03*
X320000Y550000D03*
X320000Y530000D03*
X320000Y510000D03*
X320000Y490000D03*
X320000Y470000D03*
X320000Y450000D03*
X320000Y430000D03*
X320000Y410000D03*
D46*
X1130000Y410000D03*
D47*
X1130000Y430000D03*
X1130000Y450000D03*
X1130000Y470000D03*
X1130000Y490000D03*
X1130000Y510000D03*
X1130000Y530000D03*
X1130000Y550000D03*
X1130000Y570000D03*
X1130000Y590000D03*
D46*
X70000Y320000D03*
D48*
X70000Y300000D03*
X70000Y280000D03*
D46*
X70000Y190000D03*
D48*
X70000Y170000D03*
X70000Y150000D03*
D46*
X1130000Y280000D03*
D47*
X1130000Y300000D03*
X1130000Y320000D03*
D46*
X1130000Y150000D03*
D47*
X1130000Y170000D03*
X1130000Y190000D03*
D46*
X70000Y720000D03*
D48*
X70000Y700000D03*
X70000Y680000D03*
D46*
X1130000Y680000D03*
D47*
X1130000Y700000D03*
X1130000Y720000D03*
D46*
X630000Y130000D03*
D49*
X610000Y130000D03*
X590000Y130000D03*
X570000Y130000D03*
D46*
X240000Y970000D03*
D49*
X220000Y970000D03*
X200000Y970000D03*
X180000Y970000D03*
X160000Y970000D03*
X140000Y970000D03*
D46*
X460000Y970000D03*
D49*
X440000Y970000D03*
X420000Y970000D03*
X400000Y970000D03*
X380000Y970000D03*
X360000Y970000D03*
D18*
X123295Y570000D03*
X101705Y570000D03*
X123295Y530000D03*
X101705Y530000D03*
X123295Y490000D03*
X101705Y490000D03*
X123295Y450000D03*
X101705Y450000D03*
X123295Y550000D03*
X101705Y550000D03*
X123295Y510000D03*
X101705Y510000D03*
X123295Y470000D03*
X101705Y470000D03*
X123295Y430000D03*
X101705Y430000D03*
X826705Y470000D03*
X848295Y470000D03*
X826705Y490000D03*
X848295Y490000D03*
X373295Y570000D03*
X351705Y570000D03*
X373295Y530000D03*
X351705Y530000D03*
X373295Y490000D03*
X351705Y490000D03*
X373295Y450000D03*
X351705Y450000D03*
X373295Y550000D03*
X351705Y550000D03*
X373295Y510000D03*
X351705Y510000D03*
X373295Y470000D03*
X351705Y470000D03*
X373295Y430000D03*
X351705Y430000D03*
X826705Y510000D03*
X848295Y510000D03*
X826705Y530000D03*
X848295Y530000D03*
X1076705Y430000D03*
X1098295Y430000D03*
X1076705Y450000D03*
X1098295Y450000D03*
X1076705Y470000D03*
X1098295Y470000D03*
X1076705Y490000D03*
X1098295Y490000D03*
X1076705Y510000D03*
X1098295Y510000D03*
X1076705Y530000D03*
X1098295Y530000D03*
X1076705Y550000D03*
X1098295Y550000D03*
X1076705Y570000D03*
X1098295Y570000D03*
X826705Y430000D03*
X848295Y430000D03*
X826705Y450000D03*
X848295Y450000D03*
X826705Y550000D03*
X848295Y550000D03*
X826705Y570000D03*
X848295Y570000D03*
D29*
X1060000Y860000D03*
X860000Y860000D03*
D50*
X998100Y860000D03*
X972700Y860000D03*
X947300Y860000D03*
X921900Y860000D03*
X473500Y907500D03*
X448100Y907500D03*
X422700Y907500D03*
X397300Y907500D03*
X371900Y907500D03*
X346500Y907500D03*
X253500Y907500D03*
X228100Y907500D03*
X202700Y907500D03*
X177300Y907500D03*
X151900Y907500D03*
X126500Y907500D03*
D51*
X1065000Y144600D03*
X1065000Y170000D03*
X1065000Y195400D03*
D52*
X135000Y725400D03*
X135000Y700000D03*
X135000Y674600D03*
D51*
X1065000Y674600D03*
X1065000Y700000D03*
X1065000Y725400D03*
X1065000Y274600D03*
X1065000Y300000D03*
X1065000Y325400D03*
D52*
X135000Y195400D03*
X135000Y170000D03*
X135000Y144600D03*
X135000Y325400D03*
X135000Y300000D03*
X135000Y274600D03*
D53*
X1099500Y408020D03*
X1091500Y408020D03*
X1083500Y408020D03*
X1075500Y408020D03*
X1075500Y391980D03*
X1083500Y391980D03*
X1091500Y391980D03*
X1099500Y391980D03*
X1075500Y591980D03*
X1083500Y591980D03*
X1091500Y591980D03*
X1099500Y591980D03*
X1099500Y608020D03*
X1091500Y608020D03*
X1083500Y608020D03*
X1075500Y608020D03*
X849500Y408020D03*
X841500Y408020D03*
X833500Y408020D03*
X825500Y408020D03*
X825500Y391980D03*
X833500Y391980D03*
X841500Y391980D03*
X849500Y391980D03*
X825500Y591980D03*
X833500Y591980D03*
X841500Y591980D03*
X849500Y591980D03*
X849500Y608020D03*
X841500Y608020D03*
X833500Y608020D03*
X825500Y608020D03*
X100500Y591980D03*
X108500Y591980D03*
X116500Y591980D03*
X124500Y591980D03*
X124500Y608020D03*
X116500Y608020D03*
X108500Y608020D03*
X100500Y608020D03*
X124500Y408020D03*
X116500Y408020D03*
X108500Y408020D03*
X100500Y408020D03*
X100500Y391980D03*
X108500Y391980D03*
X116500Y391980D03*
X124500Y391980D03*
X350500Y591980D03*
X358500Y591980D03*
X366500Y591980D03*
X374500Y591980D03*
X374500Y608020D03*
X366500Y608020D03*
X358500Y608020D03*
X350500Y608020D03*
X374500Y408020D03*
X366500Y408020D03*
X358500Y408020D03*
X350500Y408020D03*
X350500Y391980D03*
X358500Y391980D03*
X366500Y391980D03*
X374500Y391980D03*
D29*
X110000Y775000D03*
D46*
X788000Y902000D03*
D47*
X788000Y922000D03*
X788000Y942000D03*
M02*
