M48
;GenerationSoftware,Autodesk,EAGLE,9.5.2*%
;CreationDate,2020-08-22T12:41:02Z*%
FMAT,2
ICI,OFF
METRIC,TZ,000.000
T8C0.300
T7C0.813
T6C1.000
T5C1.016
T4C1.200
T3C1.800
T2C2.200
T1C3.000
%
G90
M71
T1
X5000Y5000
X5000Y99000
X115000Y99000
X115000Y5000
X60000Y5000
T2
X83600Y27000
X74400Y27000
X101600Y27000
X92400Y27000
X27600Y27000
X18400Y27000
X45600Y27000
X36400Y27000
T3
X55500Y27000
X64500Y27000
X45500Y11000
X92500Y11000
X101500Y11000
X18500Y11000
X27500Y11000
X74500Y11000
X83500Y11000
X36500Y11000
T4
X38500Y17250
X94500Y4750
X25500Y17250
X25540Y4750
X20500Y17250
X20500Y4750
X81500Y17250
X81540Y4750
X76500Y17250
X76500Y4750
X103500Y93000
X93500Y93000
X94500Y17250
X62500Y33250
X62540Y20750
X57500Y33250
X57500Y20750
X43500Y17250
X43540Y4750
X88500Y93000
X38500Y4750
X99500Y17250
X99540Y4750
X98500Y93000
T5
X106500Y67460
X106500Y70000
X106500Y72540
X106500Y27460
X106500Y30000
X25350Y90750
X106500Y32540
X13500Y17000
X13500Y14460
X13500Y32540
X13500Y30000
X13500Y27460
X12650Y90750
X99810Y86000
X97270Y86000
X94730Y86000
X92190Y86000
X47350Y90750
X44810Y90750
X42270Y90750
X39730Y90750
X37190Y90750
X34650Y90750
X13500Y19540
X22810Y90750
X20270Y90750
X17730Y90750
X15190Y90750
X106500Y14460
X106500Y17000
X106500Y19540
X13500Y72540
X13500Y70000
X13500Y67460
T6
X81500Y34000
X79000Y34000
X76500Y34000
X99500Y34000
X97000Y34000
X25500Y34000
X23000Y34000
X20500Y34000
X43500Y34000
X41000Y34000
X38500Y34000
X94500Y34000
T7
X113000Y49000
X113000Y51000
X113000Y53000
X113000Y55000
X113000Y57000
X113000Y59000
X7000Y32000
X7000Y30000
X7000Y28000
X7000Y19000
X7000Y17000
X7000Y15000
X113000Y28000
X113000Y30000
X113000Y32000
X113000Y15000
X113000Y17000
X113000Y19000
X7000Y72000
X7000Y70000
X7000Y68000
X113000Y68000
X113000Y70000
X113000Y72000
X63000Y13000
X61000Y13000
X59000Y13000
X57000Y13000
X24000Y97000
X22000Y97000
X20000Y97000
X18000Y97000
X16000Y97000
X14000Y97000
X113000Y45000
X44000Y97000
X42000Y97000
X40000Y97000
X38000Y97000
X36000Y97000
X88000Y41000
X88000Y43000
X88000Y45000
X88000Y47000
X88000Y49000
X88000Y51000
X88000Y53000
X88000Y55000
X88000Y57000
X88000Y59000
X7000Y59000
X7000Y57000
X7000Y55000
X7000Y53000
X7000Y51000
X46000Y97000
X7000Y49000
X7000Y47000
X7000Y45000
X7000Y43000
X7000Y41000
X32000Y59000
X32000Y57000
X32000Y55000
X32000Y53000
X32000Y51000
X32000Y49000
X32000Y47000
X32000Y45000
X32000Y43000
X32000Y41000
X113000Y41000
X113000Y43000
X113000Y47000
X78800Y90200
X78800Y92200
X78800Y94200
T8
X118000Y95000
X110000Y102000
X100000Y102000
X90000Y102000
X80000Y102000
X70000Y102000
X67000Y94000
X53000Y94000
X50000Y102000
X40000Y102000
X30000Y102000
X20000Y102000
X10000Y102000
X32000Y66000
X30000Y71000
X28000Y71000
X26000Y71000
X24000Y71000
X22000Y71000
X20000Y71000
X32000Y71000
X9000Y82000
X10000Y85000
X9000Y88000
X18000Y79000
X18000Y81000
X20000Y82000
X34000Y80000
X36000Y80000
X38000Y80000
X36000Y78000
X38000Y78000
X40000Y80000
X53000Y98500
X67000Y98500
X48260Y62230
X100330Y48830
X75500Y46500
X75500Y41000
X77500Y54500
X81000Y61500
X65730Y59595
X100000Y60000
X91500Y49000
X100000Y37500
X91500Y37500
X88000Y28500
X88500Y33000
X100500Y19500
X98500Y19500
X84000Y18000
X82500Y19500
X67000Y20000
X67000Y17000
X72000Y30500
X38500Y19500
X20500Y20000
X81000Y7000
X99000Y7000
X44000Y6500
X26000Y7000
X42000Y37000
X28000Y37000
X20000Y37000
X20000Y49000
X28000Y49000
X28000Y60000
X42000Y57500
X39500Y60500
X32000Y62000
X14000Y40000
X20000Y60000
X92000Y60000
X42000Y46000
X105000Y63000
X17000Y63000
X69000Y56000
X48200Y45356
X70500Y51180
X59000Y70000
X59000Y69000
X60000Y70000
X61000Y70000
X61000Y69000
X60000Y69000
X84500Y66050
X5000Y88000
X31000Y100000
X97000Y5000
X79000Y5000
X23000Y5000
X41000Y5000
X55800Y38750
X67000Y41000
X53000Y29000
X52600Y57450
X51000Y53000
X50350Y39300
X67000Y57000
X57000Y44000
X59000Y41066
X67000Y35000
X67000Y31000
X67000Y33000
X5000Y82000
X29000Y100000
X64500Y44000
X63500Y44000
X65000Y50000
X65000Y49000
X46000Y80000
X47000Y80000
X48000Y80000
X49000Y80000
X50000Y80000
X50000Y79000
X49000Y79000
X48000Y79000
X47000Y79000
X46000Y79000
X45000Y79000
X44000Y79000
X24000Y79000
X25000Y79000
X26000Y79000
X27000Y79000
X28000Y79000
X29000Y79000
X30000Y79000
X24000Y80000
X25000Y80000
X26000Y80000
X27000Y80000
X59000Y84000
X60000Y84000
X61000Y84000
X61000Y83000
X60000Y83000
X59000Y83000
X45000Y80000
X29000Y80000
X28000Y80000
X66000Y78000
X73000Y80000
X74000Y80000
X75000Y80000
X76000Y80000
X77000Y80000
X78000Y80000
X78000Y79000
X77000Y79000
X76000Y79000
X75000Y79000
X74000Y79000
X73000Y79000
X72000Y79000
X92000Y80000
X92000Y79000
X93000Y79000
X93000Y80000
X94000Y80000
X94000Y79000
X95000Y79000
X95000Y80000
X96000Y80000
X96000Y79000
X97000Y79000
X97000Y80000
X98000Y80000
X98000Y79000
X73000Y98000
X73000Y97000
X73000Y96000
X73000Y94000
X73000Y95000
X74000Y94000
X74000Y95000
X74000Y96000
X74000Y97000
X74000Y98000
X75000Y98000
X75000Y97000
X75000Y96000
X75000Y95000
X75000Y94000
X65000Y51000
X65000Y52000
X63000Y56000
X63000Y54990
X63000Y53979
X63000Y52969
X56000Y73000
X70000Y80000
X38944Y75000
X39200Y81200
X43800Y81000
X50500Y83500
X80000Y76000
X81000Y67000
X67900Y62000
X81000Y76000
X69150Y62000
X84000Y76000
X70400Y62000
X85000Y67000
X71850Y62000
X84000Y67000
X74350Y62000
X106000Y86000
X82000Y76000
X73100Y62000
X86000Y86000
X85000Y76000
X85900Y68000
X80000Y68000
X86250Y45000
X84230Y37750
X86250Y47000
X83270Y37750
X86250Y49000
X82309Y37750
X86250Y51000
X82309Y62250
X86250Y53000
X83270Y62250
X86250Y55000
X84230Y62250
X86250Y57000
X85191Y62250
X8700Y55000
X10770Y62200
X8700Y53000
X11730Y62200
X8700Y51000
X12691Y62200
X12741Y37900
X8700Y49000
X11773Y37893
X8700Y47000
X10777Y37893
X8700Y45000
X9809Y37900
X8700Y43000
X35770Y62000
X33700Y55000
X36730Y62000
X33700Y53000
X37691Y62000
X33700Y51000
X37691Y37750
X33700Y49000
X36730Y37750
X33700Y47000
X35770Y37750
X33700Y45000
X34809Y37750
X33700Y43000
X111250Y57000
X110191Y62250
X111250Y55000
X109230Y62250
X111250Y53000
X108270Y62250
X111250Y51000
X107309Y62250
X111250Y45000
X109230Y37750
X111250Y47000
X108270Y37750
X111250Y49000
X107309Y37750
X46000Y46600
X46000Y45600
X53800Y45700
X53800Y44656
X30000Y94000
X54000Y56000
X59000Y56000
X40000Y69000
X58730Y60000
X57770Y60000
X36000Y68600
X40000Y68000
X46000Y48600
X46000Y47600
X53799Y47729
X53799Y46669
X45847Y41021
X55000Y44000
X51150Y41700
X56000Y44000
X50900Y45356
X70500Y50220
X78000Y72000
X76000Y72000
X74000Y72000
X72000Y72000
X70000Y72000
X70000Y70000
X72000Y70000
X74000Y70000
X76000Y70000
X78000Y70000
X78000Y68000
X76000Y68000
X74000Y68000
X72000Y68000
X70000Y68000
X88000Y72000
X88000Y70000
X88000Y68000
X90000Y72000
X90000Y70000
X90000Y68000
X92000Y72000
X92000Y70000
X92000Y68000
X94000Y72000
X94000Y70000
X94000Y68000
X96000Y72000
X96000Y70000
X96000Y68000
X98000Y72000
X98000Y70000
X98000Y68000
X36300Y71300
X37700Y71300
X37700Y72700
X36300Y72700
X84000Y71000
X83000Y71000
X82000Y71000
X84000Y72000
X83000Y72000
X82000Y72000
X84000Y73000
X83000Y73000
X82000Y73000
X50000Y72000
X50000Y70000
X50000Y68000
X48000Y70000
X48000Y72000
X46000Y72000
X46000Y70000
X44000Y70000
X44000Y72000
X42000Y72000
X56000Y76000
X56000Y78000
X54000Y78000
X54000Y76000
X54000Y74000
X52000Y74000
X52000Y76000
X52000Y78000
X50000Y76000
X50000Y74000
X64000Y78000
X64000Y76000
X66000Y76000
X68000Y78000
X68000Y76000
X66000Y74000
X68000Y74000
X70000Y78000
X70000Y76000
X70000Y74000
X58000Y76000
X62000Y76000
X64000Y74000
X52000Y66000
X54000Y68000
X52000Y72000
X72000Y80000
X52000Y70000
X52000Y68000
X60000Y62000
X56000Y66000
X58000Y62000
X56000Y64000
X54000Y66000
X62000Y64000
X64000Y66000
X66000Y68000
X68000Y68000
X68000Y70000
X68000Y72000
X56000Y74000
X40000Y66000
X42000Y66000
X46000Y66000
X48000Y66000
X82714Y68336
X86250Y59200
X111250Y59200
X111250Y40800
X86250Y40800
X33700Y40800
X33700Y59200
X8700Y40800
X8700Y59200
X52100Y42450
X30000Y93000
X32500Y99000
X27550Y99000
X47000Y43000
X50350Y40350
X67000Y29000
X48000Y52000
X48000Y51000
X52600Y60600
X65150Y39150
X70500Y39500
X72000Y38000
X70500Y36500
X65000Y90500
X60000Y90500
X55000Y90500
X11000Y77500
X55800Y39900
X56400Y56000
X2000Y95000
X2000Y85000
X2000Y75000
X2000Y65000
X2000Y55000
X2000Y45000
X2000Y35000
X2000Y25000
X2000Y15000
X2000Y5000
X5000Y2000
X15000Y2000
X25000Y2000
X35000Y2000
X45000Y2000
X55000Y2000
X65000Y2000
X75000Y2000
X85000Y2000
X95000Y2000
X105000Y2000
X115000Y2000
X118000Y5000
X118000Y15000
X118000Y25000
X118000Y35000
X118000Y45000
X118000Y55000
X118000Y65000
X118000Y75000
X118000Y85000
M30